<svg width="123" height="41" viewBox="0 0 123 41" fill="none" xmlns="http://www.w3.org/2000/svg">
<g clip-path="url(#clip0)">
<path d="M7.88702 41C7.5584 41 7.27672 41 6.94809 41C6.38473 41 5.68053 40.9518 4.97634 40.8071C4.31908 40.7106 3.75573 40.5177 3.23931 40.2282C2.67595 39.9388 2.20649 39.6012 1.78397 39.1188C1.4084 38.6847 1.03282 38.2024 0.751145 37.6235C0.469466 37.0929 0.281679 36.5141 0.187786 35.8388C0.0469466 35.1153 0.0469466 34.3918 0 33.8129C0 33.5718 0 32.8482 0 32.8482V8.10353C0 8.10353 0 7.38 0 7.13882C0 6.56 0.0469466 5.83647 0.187786 5.11294C0.281679 4.48588 0.469466 3.90706 0.751145 3.37647C1.03282 2.79765 1.4084 2.31529 1.83092 1.88118C2.25344 1.44706 2.7229 1.06118 3.28626 0.771765C3.80267 0.482353 4.36603 0.289412 5.02328 0.192941C5.72748 0.0482353 6.43168 0.0482353 6.99504 0H7.93397H115.113H116.052C116.568 0 117.319 0.0482353 117.977 0.192941C118.587 0.289412 119.15 0.482353 119.714 0.771765C120.23 1.06118 120.747 1.39882 121.169 1.88118C121.592 2.31529 121.967 2.84588 122.249 3.37647C122.531 3.90706 122.718 4.48588 122.812 5.16118C122.953 5.83647 122.953 6.51177 123 7.18706C123 7.47647 123 7.81412 123 8.15176C123 8.53765 123 8.92353 123 9.30941V31.7388C123 32.1247 123 32.5106 123 32.8965C123 33.2341 123 33.5718 123 33.9094C123 34.5365 122.953 35.2118 122.812 35.8871C122.718 36.5624 122.531 37.1412 122.249 37.6718C121.967 38.2506 121.592 38.7329 121.169 39.1671C120.747 39.6012 120.23 39.9871 119.714 40.2765C119.15 40.5659 118.634 40.7588 117.977 40.8553C117.319 41 116.615 41 116.005 41.0482C115.676 41.0482 115.395 41.0482 115.066 41.0482H113.939L7.88702 41Z" fill="black"/>
<path d="M24.9286 20.8376C24.8816 17.8952 27.2759 16.4482 27.3698 16.3999C26.0083 14.374 23.9427 14.1329 23.1915 14.0846C21.4545 13.8917 19.7644 15.1458 18.8725 15.1458C17.9805 15.1458 16.5721 14.0846 15.1167 14.1329C13.1919 14.1811 11.408 15.2905 10.469 17.0752C8.45032 20.6446 9.95261 25.9505 11.8774 28.8446C12.8633 30.2435 13.99 31.8352 15.4454 31.787C16.9007 31.7388 17.4171 30.8223 19.2011 30.8223C20.9381 30.8223 21.4545 31.787 22.9568 31.7388C24.5061 31.6905 25.4919 30.2917 26.4309 28.8929C27.5576 27.2529 27.9801 25.6611 28.027 25.5646C27.9331 25.5164 24.9755 24.3588 24.9286 20.8376Z" fill="white"/>
<path d="M22.0648 12.1554C22.8629 11.1425 23.3793 9.79189 23.2385 8.39307C22.1117 8.4413 20.7033 9.21307 19.9052 10.1778C19.2011 11.046 18.5438 12.4448 18.7316 13.7954C19.9522 13.8919 21.2667 13.1201 22.0648 12.1554Z" fill="white"/>
<path d="M43.1907 28.1703H38.2614L37.0877 31.7397H34.9751L39.6698 18.4268H41.8293L46.524 31.7397H44.4114L43.1907 28.1703ZM38.7778 26.482H42.7213L40.7965 20.6456H40.7495L38.7778 26.482Z" fill="white"/>
<path d="M56.6174 26.9154C56.6174 29.9542 55.0682 31.8836 52.6739 31.8836C51.3124 31.8836 50.2796 31.2566 49.7163 30.1954H49.6693V35.0189H47.7445V22.0436H49.6224V23.6354H49.6693C50.1857 22.5742 51.3594 21.8989 52.6739 21.8989C55.0212 21.9472 56.6174 23.8766 56.6174 26.9154ZM54.6457 26.9154C54.6457 24.9377 53.6598 23.6836 52.1575 23.6836C50.6552 23.6836 49.6693 24.986 49.6693 26.9154C49.6693 28.893 50.6552 30.1954 52.1575 30.1954C53.6598 30.1472 54.6457 28.893 54.6457 26.9154Z" fill="white"/>
<path d="M66.9926 26.9154C66.9926 29.9542 65.4434 31.8836 63.0491 31.8836C61.6877 31.8836 60.6549 31.2566 60.0915 30.1954H60.0446V35.0189H58.1198V22.0436H59.9976V23.6354H60.0446C60.561 22.5742 61.7346 21.8989 63.0491 21.8989C65.4434 21.9472 66.9926 23.8766 66.9926 26.9154ZM65.0209 26.9154C65.0209 24.9377 64.035 23.6836 62.5327 23.6836C61.0304 23.6836 60.0446 24.986 60.0446 26.9154C60.0446 28.893 61.0304 30.1954 62.5327 30.1954C64.035 30.1472 65.0209 28.893 65.0209 26.9154Z" fill="white"/>
<path d="M73.8938 28.0248C74.0346 29.3272 75.3022 30.1954 76.9922 30.1954C78.6354 30.1954 79.809 29.3272 79.809 28.1213C79.809 27.1083 79.1048 26.4813 77.4148 26.0472L75.7247 25.6131C73.3304 25.0342 72.2506 23.8766 72.2506 22.0436C72.2506 19.7283 74.1755 18.1848 76.9453 18.1848C79.6682 18.1848 81.5461 19.7766 81.64 22.0436H79.6682C79.5743 20.6931 78.4945 19.9213 76.8984 19.9213C75.3491 19.9213 74.2693 20.7413 74.2693 21.8989C74.2693 22.8636 74.9735 23.3942 76.6167 23.8283L78.0251 24.166C80.701 24.7931 81.7808 25.9025 81.7808 27.8319C81.7808 30.3401 79.856 31.8836 76.7575 31.8836C73.8938 31.8836 71.969 30.3401 71.8281 27.9766H73.8938V28.0248Z" fill="white"/>
<path d="M86.0059 19.7297V22.045H87.7899V23.6368H86.0059V28.9909C86.0059 29.8109 86.3815 30.1968 87.1327 30.1968C87.3204 30.1968 87.6491 30.1486 87.7899 30.1486V31.7403C87.5552 31.7886 87.1326 31.8368 86.7101 31.8368C84.7853 31.8368 84.0342 31.1133 84.0342 29.2321V23.6368H82.6727V22.045H84.0342V19.7297H86.0059Z" fill="white"/>
<path d="M88.8698 26.9153C88.8698 23.8764 90.6068 21.947 93.3297 21.947C96.0526 21.947 97.7896 23.8764 97.7896 26.9153C97.7896 29.9541 96.0526 31.8835 93.3297 31.8835C90.6068 31.8835 88.8698 29.9541 88.8698 26.9153ZM95.8178 26.9153C95.8178 24.8411 94.8789 23.587 93.3297 23.587C91.7804 23.587 90.8415 24.8411 90.8415 26.9153C90.8415 29.0376 91.7804 30.2435 93.3297 30.2435C94.9259 30.2435 95.8178 28.9894 95.8178 26.9153Z" fill="white"/>
<path d="M99.4327 22.0435H101.264V23.6835H101.311C101.592 22.5741 102.484 21.947 103.564 21.947C103.846 21.947 104.08 21.9953 104.221 22.0435V23.9247C104.08 23.8764 103.705 23.8282 103.329 23.8282C102.062 23.8282 101.311 24.6964 101.311 26.047V31.787H99.3857V22.0435H99.4327Z" fill="white"/>
<path d="M113.188 28.8929C112.906 30.6776 111.263 31.8835 109.104 31.8835C106.334 31.8835 104.644 30.0023 104.644 26.9635C104.644 23.9247 106.381 21.947 109.01 21.947C111.639 21.947 113.282 23.78 113.282 26.7223V27.3976H106.616V27.4941C106.616 29.1341 107.648 30.2435 109.151 30.2435C110.23 30.2435 111.075 29.7129 111.31 28.8929H113.188ZM106.616 25.9988H111.357C111.31 24.5035 110.371 23.5388 109.057 23.5388C107.695 23.5388 106.709 24.5517 106.616 25.9988Z" fill="white"/>
<path d="M38.5431 8.44263C40.374 8.44263 41.4538 9.60027 41.4538 11.6262C41.4538 13.652 40.374 14.8579 38.5431 14.8579H36.2897V8.44263H38.5431ZM37.2755 13.8932H38.4492C39.7637 13.8932 40.5149 13.0732 40.5149 11.5779C40.5149 10.1309 39.7637 9.31086 38.4492 9.31086H37.2755V13.8932Z" fill="white"/>
<path d="M42.5804 12.3984C42.5804 10.8548 43.4255 9.89014 44.7869 9.89014C46.1484 9.89014 46.9934 10.8548 46.9934 12.3984C46.9934 13.9419 46.1484 14.9066 44.7869 14.9066C43.4255 14.9066 42.5804 13.9419 42.5804 12.3984ZM46.0545 12.3984C46.0545 11.3372 45.585 10.7584 44.7869 10.7584C43.9888 10.7584 43.5194 11.3854 43.5194 12.3984C43.5194 13.4595 43.9888 14.0384 44.7869 14.0384C45.585 14.0384 46.0545 13.4595 46.0545 12.3984Z" fill="white"/>
<path d="M52.8618 14.8103H51.9228L50.937 11.2409H50.8431L49.8572 14.8103H48.9183L47.6038 9.98682H48.5427L49.3877 13.6527H49.4347L50.4206 9.98682H51.3125L52.2984 13.6527H52.3923L53.2373 9.98682H54.1763L52.8618 14.8103Z" fill="white"/>
<path d="M55.2561 9.98661H56.148V10.7584H56.195C56.4297 10.2278 56.8992 9.89014 57.6034 9.89014C58.6362 9.89014 59.2465 10.5172 59.2465 11.6748V14.8101H58.3076V11.916C58.3076 11.1443 57.979 10.7584 57.2748 10.7584C56.5706 10.7584 56.148 11.2407 56.148 11.9643V14.8101H55.2091V9.98661H55.2561Z" fill="white"/>
<path d="M60.7019 8.10376H61.6408V14.8085H60.7019V8.10376Z" fill="white"/>
<path d="M62.9553 12.3984C62.9553 10.8548 63.8004 9.89014 65.1618 9.89014C66.5233 9.89014 67.3683 10.8548 67.3683 12.3984C67.3683 13.9419 66.5233 14.9066 65.1618 14.9066C63.8004 14.9066 62.9553 13.9419 62.9553 12.3984ZM66.4294 12.3984C66.4294 11.3372 65.9599 10.7584 65.1618 10.7584C64.3637 10.7584 63.8943 11.3854 63.8943 12.3984C63.8943 13.4595 64.3637 14.0384 65.1618 14.0384C65.9599 14.0384 66.4294 13.4595 66.4294 12.3984Z" fill="white"/>
<path d="M68.3541 13.4592C68.3541 12.591 68.9644 12.1086 70.0912 12.0121L71.3587 11.9157V11.4816C71.3587 10.951 71.0301 10.6616 70.4198 10.6616C69.9034 10.6616 69.5278 10.8545 69.4339 11.1921H68.5419C68.6358 10.3721 69.387 9.84155 70.4667 9.84155C71.6404 9.84155 72.2977 10.4204 72.2977 11.4816V14.7616H71.4057V14.0863H71.3118C71.0301 14.5686 70.5137 14.858 69.9034 14.858C69.0114 14.9063 68.3541 14.3274 68.3541 13.4592ZM71.3587 13.0251V12.6392L70.232 12.7357C69.5747 12.7839 69.2931 13.0251 69.2931 13.411C69.2931 13.8451 69.6686 14.0863 70.185 14.0863C70.8423 14.0863 71.3587 13.6521 71.3587 13.0251Z" fill="white"/>
<path d="M73.5183 12.3967C73.5183 10.8532 74.2695 9.88847 75.4901 9.88847C76.1473 9.88847 76.6637 10.2261 76.9454 10.7567H76.9923V8.10376H77.9313V14.8085H76.9923V14.0367H76.8984C76.6168 14.5673 76.0534 14.8567 75.4431 14.8567C74.2694 14.9049 73.5183 13.9402 73.5183 12.3967ZM74.4572 12.3967C74.4572 13.4096 74.9267 14.0367 75.7248 14.0367C76.5229 14.0367 76.9923 13.4096 76.9923 12.3967C76.9923 11.3838 76.5229 10.7567 75.7248 10.7567C74.9267 10.7567 74.4572 11.3838 74.4572 12.3967Z" fill="white"/>
<path d="M81.7339 12.3984C81.7339 10.8548 82.5789 9.89014 83.9404 9.89014C85.3018 9.89014 86.1469 10.8548 86.1469 12.3984C86.1469 13.9419 85.3018 14.9066 83.9404 14.9066C82.5789 14.9066 81.7339 13.9419 81.7339 12.3984ZM85.2079 12.3984C85.2079 11.3372 84.7385 10.7584 83.9404 10.7584C83.1423 10.7584 82.6728 11.3854 82.6728 12.3984C82.6728 13.4595 83.1423 14.0384 83.9404 14.0384C84.7385 14.0384 85.2079 13.4595 85.2079 12.3984Z" fill="white"/>
<path d="M87.4145 9.98661H88.3065V10.7584H88.3534C88.5882 10.2278 89.0576 9.89014 89.7618 9.89014C90.7946 9.89014 91.405 10.5172 91.405 11.6748V14.8101H90.466V11.916C90.466 11.1443 90.1374 10.7584 89.4332 10.7584C88.729 10.7584 88.3065 11.2407 88.3065 11.9643V14.8101H87.3676V9.98661H87.4145Z" fill="white"/>
<path d="M96.616 8.77979V9.98567H97.6488V10.8057H96.616V13.2657C96.616 13.748 96.8038 13.9892 97.2732 13.9892C97.4141 13.9892 97.508 13.9892 97.6488 13.9892V14.761C97.508 14.8092 97.3202 14.8092 97.1324 14.8092C96.0996 14.8092 95.6771 14.4233 95.6771 13.5068V10.8057H94.9259V9.98567H95.6771V8.77979H96.616Z" fill="white"/>
<path d="M98.9164 8.10376H99.8553V10.7567H99.9492C100.184 10.2261 100.653 9.88847 101.405 9.88847C102.39 9.88847 103.001 10.5638 103.001 11.6732V14.8085H102.062V11.9144C102.062 11.1426 101.733 10.7567 101.076 10.7567C100.325 10.7567 99.9023 11.2391 99.9023 11.9626V14.7602H98.9633V8.10376H98.9164Z" fill="white"/>
<path d="M108.353 13.5078C108.165 14.376 107.414 14.9066 106.334 14.9066C104.973 14.9066 104.174 13.9419 104.174 12.3984C104.174 10.8548 105.019 9.89014 106.334 9.89014C107.648 9.89014 108.447 10.8066 108.447 12.3019V12.6395H105.113V12.6878C105.16 13.556 105.63 14.0866 106.381 14.0866C106.944 14.0866 107.32 13.8937 107.508 13.5078H108.353ZM105.113 11.9643H107.508C107.508 11.1925 107.038 10.7101 106.334 10.7101C105.63 10.7101 105.16 11.1925 105.113 11.9643Z" fill="white"/>
</g>
<defs>
<clipPath id="clip0">
<rect width="123" height="41" fill="white"/>
</clipPath>
</defs>
</svg>
