<svg width="180" height="48" viewBox="0 0 180 48" fill="none" xmlns="http://www.w3.org/2000/svg">
<path d="M65.2703 44.2593V39.8395H63.6769V39.4491C63.6769 39.2929 63.729 39.1628 63.8331 39.0586C63.9477 38.9441 64.0831 38.8868 64.2393 38.8868H67.9574V39.8395H66.3795V44.2593H65.2703Z" fill="#5B5B5B"/>
<path d="M72.1597 44.2593V39.4491C72.1597 39.2929 72.2118 39.1628 72.316 39.0586C72.4305 38.9441 72.5659 38.8868 72.7221 38.8868H73.2689V40.8859H75.4873V38.8868H76.6121V44.2593H75.4873V41.8698H73.2689V44.2593H72.1597Z" fill="#5B5B5B"/>
<path d="M80.8301 44.2593V39.4491C80.8301 39.2929 80.8822 39.1628 80.9863 39.0586C81.1009 38.9441 81.2363 38.8868 81.3925 38.8868H81.9393V44.2593H80.8301Z" fill="#5B5B5B"/>
<path d="M85.9854 44.2593V39.4491C85.9854 39.2929 86.0375 39.1628 86.1416 39.0586C86.2562 38.9441 86.3916 38.8816 86.5478 38.8712H87.1415L89.3286 42.5726V38.8712H90.4221V44.2593H89.2817L87.079 40.5579V44.2593H85.9854Z" fill="#5B5B5B"/>
<path d="M98.6238 43.619C98.4363 43.8897 98.2124 44.0876 97.952 44.2125C97.6813 44.327 97.3844 44.3843 97.0616 44.3843C96.2909 44.3843 95.6816 44.1292 95.2338 43.619C94.7755 43.1193 94.5464 42.4321 94.5464 41.5575C94.5464 40.6933 94.7703 40.0113 95.2182 39.5115C95.6868 38.991 96.3065 38.7307 97.0772 38.7307C97.7438 38.7307 98.2957 38.892 98.7332 39.2148C99.1602 39.5584 99.4153 40.0061 99.4986 40.5579H98.7488C98.5301 40.5579 98.3686 40.459 98.2645 40.2612C98.1916 40.1363 98.0874 40.0217 97.952 39.9176C97.7438 39.7718 97.4678 39.699 97.1241 39.699C96.6762 39.699 96.3221 39.8603 96.0618 40.1831C95.8014 40.5267 95.6712 40.9848 95.6712 41.5575C95.6712 42.1405 95.8066 42.5987 96.0774 42.9318C96.3377 43.2546 96.7075 43.416 97.1866 43.416C97.5407 43.416 97.8323 43.3171 98.0614 43.1193C98.2905 42.911 98.4363 42.6247 98.4988 42.2603H97.8427C97.6865 42.2603 97.5511 42.2082 97.4365 42.1041C97.3324 41.9896 97.2803 41.8542 97.2803 41.698V41.3388H99.5143V44.2593H99.2174C98.9258 44.2593 98.7436 44.1136 98.6707 43.8221L98.6238 43.619Z" fill="#5B5B5B"/>
<path d="M103.748 42.5882H104.841C104.883 42.9006 105.003 43.1193 105.201 43.2442C105.409 43.39 105.695 43.4628 106.06 43.4628C106.383 43.4628 106.628 43.4056 106.794 43.291C106.961 43.1765 107.044 43.0099 107.044 42.7913C107.044 42.4581 106.576 42.1874 105.638 41.9792L105.607 41.9635C105.607 41.9635 105.565 41.9531 105.482 41.9323C104.951 41.8178 104.597 41.698 104.42 41.5731C104.211 41.4586 104.066 41.292 103.982 41.0733C103.878 40.8859 103.826 40.6464 103.826 40.3549C103.826 39.8447 104.003 39.4439 104.357 39.1523C104.711 38.8712 105.227 38.7307 105.904 38.7307C106.539 38.7307 107.029 38.8764 107.372 39.168C107.726 39.4907 107.914 39.9124 107.935 40.433H107.31C107.07 40.433 106.898 40.3237 106.794 40.105C106.742 40.0009 106.669 39.9124 106.576 39.8395C106.388 39.7042 106.133 39.6365 105.81 39.6365C105.498 39.6365 105.274 39.6938 105.138 39.8083C104.982 39.9228 104.904 40.0842 104.904 40.2924C104.904 40.5736 105.206 40.7818 105.81 40.9171C105.987 40.9692 106.117 41.0004 106.201 41.0109C106.388 41.0733 106.549 41.1254 106.685 41.167C106.831 41.1983 106.945 41.2243 107.029 41.2451C107.174 41.3076 107.32 41.3701 107.466 41.4325C107.674 41.5575 107.836 41.7189 107.95 41.9167C108.065 42.1353 108.122 42.3748 108.122 42.6351C108.122 43.1973 107.935 43.6346 107.56 43.947C107.185 44.2385 106.654 44.3843 105.966 44.3843C105.258 44.3843 104.727 44.2333 104.373 43.9314C103.987 43.6294 103.779 43.1817 103.748 42.5882Z" fill="#5B5B5B"/>
<path d="M118.136 42.5882H119.23C119.271 42.9006 119.391 43.1193 119.589 43.2442C119.797 43.39 120.084 43.4628 120.448 43.4628C120.771 43.4628 121.016 43.4056 121.182 43.291C121.349 43.1765 121.432 43.0099 121.432 42.7913C121.432 42.4581 120.964 42.1874 120.026 41.9792L119.995 41.9635C119.995 41.9635 119.953 41.9531 119.87 41.9323C119.339 41.8178 118.985 41.698 118.808 41.5731C118.599 41.4586 118.454 41.292 118.37 41.0733C118.266 40.8859 118.214 40.6464 118.214 40.3549C118.214 39.8447 118.391 39.4439 118.745 39.1523C119.099 38.8712 119.615 38.7307 120.292 38.7307C120.927 38.7307 121.417 38.8764 121.76 39.168C122.114 39.4907 122.302 39.9124 122.323 40.433H121.698C121.458 40.433 121.286 40.3237 121.182 40.105C121.13 40.0009 121.057 39.9124 120.964 39.8395C120.776 39.7042 120.521 39.6365 120.198 39.6365C119.886 39.6365 119.662 39.6938 119.526 39.8083C119.37 39.9228 119.292 40.0842 119.292 40.2924C119.292 40.5736 119.594 40.7818 120.198 40.9171C120.375 40.9692 120.505 41.0004 120.589 41.0109C120.776 41.0733 120.938 41.1254 121.073 41.167C121.219 41.1983 121.333 41.2243 121.417 41.2451C121.562 41.3076 121.708 41.3701 121.854 41.4325C122.062 41.5575 122.224 41.7189 122.338 41.9167C122.453 42.1353 122.51 42.3748 122.51 42.6351C122.51 43.1973 122.323 43.6346 121.948 43.947C121.573 44.2385 121.042 44.3843 120.354 44.3843C119.646 44.3843 119.115 44.2333 118.761 43.9314C118.376 43.6294 118.167 43.1817 118.136 42.5882Z" fill="#5B5B5B"/>
<path d="M127.744 41.5731C127.744 42.177 127.874 42.6351 128.134 42.9475C128.395 43.2702 128.764 43.4316 129.243 43.4316C129.712 43.4316 130.082 43.2702 130.353 42.9475C130.623 42.6143 130.759 42.1562 130.759 41.5731C130.759 40.99 130.623 40.5267 130.353 40.1831C130.082 39.8603 129.712 39.699 129.243 39.699C128.764 39.699 128.395 39.8603 128.134 40.1831C127.874 40.5059 127.744 40.9692 127.744 41.5731ZM126.634 41.5731C126.634 40.6985 126.864 40.0061 127.322 39.4959C127.811 38.9857 128.452 38.7307 129.243 38.7307C130.024 38.7307 130.665 38.9857 131.165 39.4959C131.634 40.0165 131.868 40.7089 131.868 41.5731C131.868 42.4373 131.634 43.1245 131.165 43.6346C130.686 44.1344 130.045 44.3843 129.243 44.3843C128.431 44.3843 127.791 44.1344 127.322 43.6346C126.864 43.1349 126.634 42.4477 126.634 41.5731Z" fill="#5B5B5B"/>
<path d="M136.117 44.2593V39.4491C136.117 39.2929 136.169 39.1628 136.273 39.0586C136.388 38.9441 136.523 38.8868 136.68 38.8868H137.226V43.2598H139.851V44.2593H136.117Z" fill="#5B5B5B"/>
<path d="M145.147 38.8712V42.229C145.147 42.6455 145.225 42.9527 145.381 43.1505C145.548 43.3379 145.813 43.4316 146.178 43.4316C146.532 43.4316 146.798 43.3379 146.975 43.1505C147.141 42.9631 147.225 42.6559 147.225 42.229V38.8712H148.334V42.354C148.334 43.0203 148.146 43.5253 147.771 43.8689C147.428 44.2125 146.896 44.3843 146.178 44.3843C145.459 44.3843 144.928 44.2125 144.584 43.8689C144.209 43.5253 144.022 43.0203 144.022 42.354V39.4647C144.022 39.3085 144.074 39.1732 144.178 39.0586C144.293 38.9337 144.428 38.8712 144.584 38.8712H145.147Z" fill="#5B5B5B"/>
<path d="M154.13 44.2593V39.8395H152.536V39.4491C152.536 39.2929 152.588 39.1628 152.692 39.0586C152.807 38.9441 152.942 38.8868 153.099 38.8868H156.817V39.8395H155.239V44.2593H154.13Z" fill="#5B5B5B"/>
<path d="M161.019 44.2593V39.4491C161.019 39.2929 161.071 39.1628 161.175 39.0586C161.29 38.9441 161.425 38.8868 161.581 38.8868H162.128V44.2593H161.019Z" fill="#5B5B5B"/>
<path d="M167.19 41.5731C167.19 42.177 167.32 42.6351 167.58 42.9475C167.841 43.2702 168.21 43.4316 168.689 43.4316C169.158 43.4316 169.528 43.2702 169.799 42.9475C170.069 42.6143 170.205 42.1562 170.205 41.5731C170.205 40.99 170.069 40.5267 169.799 40.1831C169.528 39.8603 169.158 39.699 168.689 39.699C168.21 39.699 167.841 39.8603 167.58 40.1831C167.32 40.5059 167.19 40.9692 167.19 41.5731ZM166.081 41.5731C166.081 40.6985 166.31 40.0061 166.768 39.4959C167.257 38.9857 167.898 38.7307 168.689 38.7307C169.471 38.7307 170.111 38.9857 170.611 39.4959C171.08 40.0165 171.314 40.7089 171.314 41.5731C171.314 42.4373 171.08 43.1245 170.611 43.6346C170.132 44.1344 169.491 44.3843 168.689 44.3843C167.877 44.3843 167.237 44.1344 166.768 43.6346C166.31 43.1349 166.081 42.4477 166.081 41.5731Z" fill="#5B5B5B"/>
<path d="M175.563 44.2593V39.4491C175.563 39.2929 175.615 39.1628 175.719 39.0586C175.834 38.9441 175.969 38.8816 176.126 38.8712H176.719L178.906 42.5726V38.8712H180V44.2593H178.86L176.657 40.5579V44.2593H175.563Z" fill="#5B5B5B"/>
<path d="M150.795 5.59499C150.795 6.83266 149.782 7.83599 148.533 7.83599C147.283 7.83599 146.27 6.83266 146.27 5.59499C146.27 4.35733 147.283 3.354 148.533 3.354C149.782 3.354 150.795 4.35733 150.795 5.59499Z" fill="#5B5B5B"/>
<path d="M73.3011 5.67769H76.9427L85.0713 28.0476H80.1942L78.6985 23.4305H69.9847L68.554 28.0476H63.6769L71.0902 7.17336C71.4803 6.17625 72.2173 5.67769 73.3011 5.67769ZM74.3416 10.1647L71.2202 19.6589H77.463L74.3416 10.1647Z" fill="#5B5B5B"/>
<path d="M93.3083 32.2094C93.3083 32.8164 93.0916 33.3366 92.658 33.7701C92.2245 34.2036 91.7043 34.4204 91.0973 34.4204H88.8864V18.2282C88.8864 15.1936 89.7751 13.1343 91.5525 12.0505C93.33 10.9233 95.2592 10.3598 97.3401 10.3598C98.4239 10.3598 99.5077 10.5765 100.592 11.0101C101.719 11.4002 102.607 11.9855 103.258 12.7658C104.558 14.4566 105.209 16.6242 105.209 19.2687C105.209 21.9999 104.558 24.2109 103.258 25.9016C101.957 27.549 100.288 28.3727 98.2505 28.3727C97.1667 28.3727 96.2129 28.1776 95.3892 27.7875C94.5222 27.3539 93.8286 26.682 93.3083 25.7716V32.2094ZM100.722 19.4638C100.722 17.773 100.396 16.4725 99.7462 15.5621C99.0959 14.6517 98.1638 14.1965 96.9499 14.1965C95.7794 14.1965 94.869 14.6517 94.2187 15.5621C93.6118 16.3858 93.3083 17.6863 93.3083 19.4638C93.3083 21.1112 93.6335 22.3467 94.2838 23.1704C94.934 24.0808 95.8661 24.536 97.08 24.536C98.2072 24.536 99.0959 24.0808 99.7462 23.1704C100.396 22.26 100.722 21.0245 100.722 19.4638Z" fill="#5B5B5B"/>
<path d="M113.185 32.2094C113.185 32.8164 112.969 33.3366 112.535 33.7701C112.102 34.2036 111.581 34.4204 110.974 34.4204H108.763V18.2282C108.763 15.1936 109.652 13.1343 111.43 12.0505C113.207 10.9233 115.136 10.3598 117.217 10.3598C118.301 10.3598 119.385 10.5765 120.469 11.0101C121.596 11.4002 122.485 11.9855 123.135 12.7658C124.435 14.4566 125.086 16.6242 125.086 19.2687C125.086 21.9999 124.435 24.2109 123.135 25.9016C121.834 27.549 120.165 28.3727 118.128 28.3727C117.044 28.3727 116.09 28.1776 115.266 27.7875C114.399 27.3539 113.706 26.682 113.185 25.7716V32.2094ZM120.599 19.4638C120.599 17.773 120.274 16.4725 119.623 15.5621C118.973 14.6517 118.041 14.1965 116.827 14.1965C115.657 14.1965 114.746 14.6517 114.096 15.5621C113.489 16.3858 113.185 17.6863 113.185 19.4638C113.185 21.1112 113.511 22.3467 114.161 23.1704C114.811 24.0808 115.743 24.536 116.957 24.536C118.084 24.536 118.973 24.0808 119.623 23.1704C120.274 22.26 120.599 21.0245 120.599 19.4638Z" fill="#5B5B5B"/>
<path d="M138.655 19.3337C138.048 19.6372 137.203 19.919 136.119 20.1791C135.122 20.3959 134.623 20.5042 134.623 20.5042C133.843 20.721 133.279 21.0028 132.933 21.3496C132.629 21.8265 132.477 22.3034 132.477 22.7803C132.477 23.4305 132.672 23.9508 133.063 24.3409C133.453 24.6878 134.016 24.8612 134.753 24.8612C135.967 24.8612 136.921 24.5144 137.615 23.8207C138.308 23.1271 138.655 22.1733 138.655 20.9594V19.3337ZM139.696 27.3323C138.785 27.8091 137.81 28.0909 136.769 28.1776C135.772 28.3077 134.883 28.3727 134.103 28.3727C132.542 28.3727 131.177 27.9609 130.006 27.1372C128.836 26.2701 128.25 24.8612 128.25 22.9103C128.25 21.0895 128.771 19.7889 129.811 19.0086C130.895 18.2282 132.261 17.708 133.908 17.4479C134.125 17.4479 134.385 17.4262 134.688 17.3829C134.992 17.2962 135.339 17.2311 135.729 17.1878C137.636 16.9277 138.59 16.3641 138.59 15.497C138.59 14.8467 138.243 14.4349 137.55 14.2615C136.899 14.0447 136.292 13.9363 135.729 13.9363C135.122 13.9363 134.58 14.0231 134.103 14.1965C133.626 14.3699 133.279 14.695 133.063 15.1719H128.706C128.879 13.828 129.486 12.7225 130.526 11.8554C131.697 10.8583 133.366 10.3598 135.534 10.3598C137.961 10.3598 139.782 10.7716 140.996 11.5953C142.253 12.4624 142.882 13.6762 142.882 15.2369V21.1545C142.882 22.8886 142.557 24.2542 141.906 25.2513C141.3 26.2051 140.563 26.8987 139.696 27.3323Z" fill="#5B5B5B"/>
<path d="M146.697 10.7499H149.038C149.645 10.7499 150.165 10.9667 150.599 11.4002C151.032 11.8337 151.249 12.354 151.249 12.9609V28.0476H146.697V10.7499Z" fill="#5B5B5B"/>
<path d="M169.305 28.0476H164.818V16.9927C164.818 15.9522 164.493 15.1936 163.843 14.7167C163.236 14.2398 162.542 14.0014 161.762 14.0014C160.982 14.0014 160.288 14.2398 159.681 14.7167C159.074 15.1936 158.771 15.9522 158.771 16.9927V28.0476H154.219V17.9031C154.219 14.9551 154.977 12.9826 156.495 11.9855C158.055 10.9884 159.768 10.4465 161.632 10.3598C162.629 10.3598 163.604 10.4681 164.558 10.6849C165.512 10.9017 166.379 11.3352 167.159 11.9855C167.81 11.4219 168.568 11.0317 169.435 10.815C170.346 10.5549 171.278 10.4031 172.232 10.3598C174.139 10.3598 175.895 10.8583 177.499 11.8554C179.103 12.8525 179.905 14.8684 179.905 17.9031V28.0476H177.629C176.979 28.0476 176.437 27.8525 176.003 27.4623C175.613 27.0288 175.418 26.4869 175.418 25.8366V16.9927C175.418 15.9522 175.093 15.1936 174.443 14.7167C173.836 14.2398 173.142 14.0014 172.362 14.0014C171.581 14.0014 170.866 14.2398 170.216 14.7167C169.609 15.1936 169.305 15.9522 169.305 16.9927V28.0476Z" fill="#5B5B5B"/>
<path d="M38.5054 4.71696C36.2929 4.47623 34.3026 6.1043 34.056 8.35344C33.9906 8.93849 34.0516 9.53075 34.2347 10.0902C34.4178 10.6497 34.7188 11.1634 35.1174 11.5966L35.1152 11.6055C35.81 12.3992 36.1633 13.3961 36.0129 14.4157C35.8352 15.6201 34.9941 16.5908 33.8316 17.1193L33.8267 17.1385C33.1246 17.412 32.5114 17.8734 32.0541 18.4722C31.5968 19.0711 31.3132 19.7842 31.2343 20.5335C30.9887 22.7812 32.5842 24.8015 34.7967 25.0422C37.0092 25.2829 39.0013 23.6552 39.2461 21.4057C39.3099 20.8338 39.2531 20.2548 39.0793 19.7062C38.9055 19.1576 38.6185 18.6515 38.2369 18.2207V18.2185C37.5051 17.4152 37.1288 16.3926 37.2836 15.3457C37.4651 14.1146 38.3402 13.1273 39.5427 12.6051L39.5457 12.5925C40.2307 12.311 40.8268 11.8496 41.2709 11.257C41.715 10.6644 41.9906 9.96277 42.0685 9.22636C42.3133 6.97647 40.7182 4.95806 38.5054 4.71696Z" fill="url(#paint0_linear)"/>
<path d="M13.086 22.1559C10.8735 21.9152 8.88099 23.5433 8.6373 25.7924C8.57207 26.3771 8.63292 26.969 8.81576 27.5282C8.9986 28.0874 9.29918 28.6009 9.69725 29.0341L9.6954 29.043C10.3891 29.8366 10.7424 30.8336 10.5916 31.8547C10.4139 33.0587 9.57318 34.0298 8.41028 34.5582L8.40583 34.5775C7.70371 34.8509 7.0904 35.3123 6.63312 35.9112C6.17583 36.51 5.89223 37.2232 5.81338 37.9725C5.56857 40.2217 7.16368 42.2404 9.37615 42.4812C11.5886 42.7219 13.5819 41.0938 13.8267 38.8447C13.8904 38.2727 13.8336 37.6938 13.6598 37.1452C13.4859 36.5966 13.199 36.0905 12.8175 35.6597V35.6574C12.0864 34.8545 11.7112 33.8309 11.8645 32.7843C12.0464 31.5532 12.9212 30.5659 14.1237 30.0437L14.1266 30.0311C14.8116 29.7494 15.4075 29.2878 15.8514 28.695C16.2953 28.1022 16.5705 27.4003 16.648 26.6638C16.8935 24.4154 15.2984 22.397 13.086 22.1559Z" fill="url(#paint1_linear)"/>
<path d="M14.8055 1.69676C13.526 3.51815 13.9893 6.04876 15.8403 7.34943C16.3209 7.68924 16.8689 7.922 17.4471 8.03201C18.0254 8.14203 18.6205 8.12674 19.1923 7.98718L19.199 7.9931C20.2297 7.7683 21.273 7.94015 22.0933 8.56456C23.0603 9.30044 23.5043 10.507 23.4066 11.7818L23.4214 11.7951C23.322 12.5418 23.4299 13.3015 23.7335 13.9909C24.0371 14.6804 24.5245 15.273 25.1424 15.7038C26.9942 17.0045 29.5314 16.5827 30.811 14.7616C32.0906 12.9406 31.6273 10.4115 29.7762 9.10897C29.3062 8.77676 28.7717 8.54683 28.2073 8.43405C27.6428 8.32126 27.061 8.32813 26.4994 8.45419C25.4424 8.70677 24.3654 8.54234 23.5232 7.90126C22.5333 7.14759 22.0911 5.90469 22.2155 4.59884L22.2059 4.59032C22.2902 3.85462 22.1739 3.10981 21.8693 2.43485C21.5647 1.75989 21.0831 1.17992 20.4756 0.756442C18.6231 -0.546083 16.0851 -0.124252 14.8055 1.69676Z" fill="url(#paint2_linear)"/>
<path d="M0.353012 20.4633C1.26926 22.4913 3.68321 23.3809 5.74532 22.4495C6.28218 22.2088 6.76119 21.8557 7.15007 21.4142C7.53895 20.9727 7.82865 20.4529 7.99965 19.89L8.00817 19.8874C8.33889 18.8874 9.01849 18.0753 9.97325 17.6871C11.101 17.2286 12.3642 17.4601 13.4112 18.1927L13.4301 18.1867C14.0223 18.6525 14.7312 18.9464 15.4792 19.0361C16.2272 19.1258 16.9855 19.0078 17.671 18.6952C19.7331 17.7638 20.662 15.3643 19.745 13.3359C18.828 11.3075 16.4148 10.4182 14.3534 11.3497C13.8281 11.5851 13.3581 11.9281 12.9737 12.3566C12.5893 12.785 12.299 13.2893 12.1217 13.837H12.1187C11.7983 14.8739 11.1084 15.7187 10.1281 16.1172C8.97553 16.5861 7.68041 16.3339 6.62009 15.5617L6.60787 15.5654C6.01748 15.1187 5.31726 14.8399 4.58138 14.7587C3.84549 14.6774 3.10134 14.7967 2.42772 15.1039C0.365604 16.0354 -0.563237 18.4349 0.353012 20.4633Z" fill="url(#paint3_linear)"/>
<path d="M28.1863 33.7642C29.1026 35.7926 31.5169 36.6818 33.5786 35.7504C34.1155 35.5098 34.5945 35.1569 34.9834 34.7154C35.3723 34.2739 35.662 33.7542 35.8329 33.1912L35.8415 33.1883C36.1726 32.1883 36.8518 31.3762 37.8065 30.988C38.9343 30.5295 40.1975 30.761 41.2445 31.4936L41.2638 31.4876C41.8558 31.9534 42.5647 32.2473 43.3127 32.337C44.0607 32.4267 44.8189 32.3087 45.5043 31.9961C47.5664 31.0647 48.4952 28.6656 47.5783 26.6371C46.6613 24.6087 44.2477 23.7195 42.1859 24.651C41.6608 24.8864 41.1908 25.2294 40.8064 25.6578C40.422 26.0861 40.1317 26.5903 39.9542 27.1379C39.6335 28.1748 38.9435 29.0196 37.9636 29.4181C36.8107 29.8866 35.5159 29.6344 34.4552 28.8626L34.443 28.8667C33.8526 28.4197 33.1523 28.1407 32.4163 28.0594C31.6802 27.978 30.9359 28.0972 30.2621 28.4045C28.1989 29.3366 27.2701 31.7358 28.1863 33.7642Z" fill="url(#paint4_linear)"/>
<path d="M17.2758 32.4691C15.9963 34.2902 16.461 36.8208 18.3109 38.1218C18.7914 38.4614 19.3391 38.694 19.9171 38.8039C20.4951 38.9139 21.0899 38.8986 21.6615 38.7592L21.6682 38.7655C22.6985 38.5403 23.7421 38.7125 24.5621 39.3369C25.5309 40.0739 25.9746 41.2794 25.8772 42.5534L25.892 42.5668C25.7923 43.3135 25.9001 44.0733 26.2037 44.7628C26.5072 45.4524 26.9947 46.045 27.6127 46.4758C29.4644 47.7765 32.0021 47.3547 33.2817 45.5337C34.5612 43.7126 34.0964 41.182 32.2465 39.8814C31.7766 39.5489 31.2422 39.3186 30.6777 39.2055C30.1133 39.0924 29.5314 39.099 28.9697 39.2247H28.9678C27.9112 39.4773 26.8338 39.3129 25.992 38.6722C25.0017 37.9181 24.5599 36.6752 24.6843 35.3697L24.6747 35.3608C24.7589 34.6252 24.6425 33.8804 24.3379 33.2055C24.0333 32.5305 23.5518 31.9506 22.9444 31.527C21.0934 30.2252 18.5554 30.6481 17.2758 32.4691Z" fill="url(#paint5_linear)"/>
<path d="M24.0328 27.4724C26.21 27.4724 27.9749 25.7075 27.9749 23.5304C27.9749 21.3533 26.21 19.5884 24.0328 19.5884C21.8557 19.5884 20.0908 21.3533 20.0908 23.5304C20.0908 25.7075 21.8557 27.4724 24.0328 27.4724Z" fill="#5B5B5B"/>
<defs>
<linearGradient id="paint0_linear" x1="34.9983" y1="23.7742" x2="40.3827" y2="3.13151" gradientUnits="userSpaceOnUse">
<stop stop-color="#981E15"/>
<stop offset="1" stop-color="#E03122"/>
</linearGradient>
<linearGradient id="paint1_linear" x1="8.97124" y1="41.0536" x2="13.9082" y2="23.3268" gradientUnits="userSpaceOnUse">
<stop stop-color="#0288C9"/>
<stop offset="1" stop-color="#11558F"/>
</linearGradient>
<linearGradient id="paint2_linear" x1="14.076" y1="2.89145e-07" x2="27.8165" y2="14.5713" gradientUnits="userSpaceOnUse">
<stop stop-color="#38A434"/>
<stop offset="1" stop-color="#1D5527"/>
</linearGradient>
<linearGradient id="paint3_linear" x1="8.04206e-08" y1="22.8157" x2="20.0995" y2="16.9041" gradientUnits="userSpaceOnUse">
<stop stop-color="#38A434"/>
<stop offset="1" stop-color="#1C5326"/>
</linearGradient>
<linearGradient id="paint4_linear" x1="27.8325" y1="33.8721" x2="42.1801" y2="30.1973" gradientUnits="userSpaceOnUse">
<stop stop-color="#9B1F15"/>
<stop offset="1" stop-color="#E03122"/>
</linearGradient>
<linearGradient id="paint5_linear" x1="32.3062" y1="45.3196" x2="17.9426" y2="32.5297" gradientUnits="userSpaceOnUse">
<stop stop-color="#0288C9"/>
<stop offset="1" stop-color="#115690"/>
</linearGradient>
</defs>
</svg>
