<?xml version="1.0" encoding="UTF-8"?>
<svg width="21px" height="14px" viewBox="0 0 21 14" version="1.1" xmlns="http://www.w3.org/2000/svg" xmlns:xlink="http://www.w3.org/1999/xlink">
    <!-- Generator: Sketch 59.1 (86144) - https://sketch.com -->
    <title>Group 44</title>
    <desc>Created with Sketch.</desc>
    <g id="CORE-HRMS---organisation-setup-final-UI" stroke="none" stroke-width="1" fill="none" fill-rule="evenodd">
        <g id="Group-44">
            <rect id="Rectangle" fill="#006C35" x="0" y="0" width="21" height="14"></rect>
            <path d="M9.38252341,3 C9.37052341,3 9.35152341,3.006 9.32552341,3.022 C9.26652341,3.062 9.15152341,3.182 9.14752341,3.321 C9.14352341,3.399 9.12952341,3.399 9.18052341,3.449 C9.21752341,3.502 9.25452341,3.497 9.32952341,3.458 C9.36718667,3.43464617 9.39331076,3.39654853 9.40152341,3.353 C9.41952341,3.263 9.30752341,3.395 9.29352341,3.296 C9.26852341,3.204 9.33952341,3.166 9.40752341,3.076 C9.40952341,3.035 9.40952341,3.001 9.38252341,3 L9.38252341,3 Z M10.4725234,3.006 C10.4515234,3.009 10.4255234,3.036 10.3905234,3.1 C10.3645234,3.167 10.2555234,3.27 10.3345234,3.48 C10.3995234,3.613 10.4255234,3.83 10.3965234,4.072 C10.3515234,4.141 10.3415234,4.164 10.2825234,4.232 C10.1995234,4.322 10.1105234,4.299 10.0415234,4.266 C9.97752341,4.223 9.92652341,4.2 9.89752341,4.063 C9.90252341,3.843 9.91552341,3.485 9.87552341,3.409 C9.81552341,3.291 9.71952341,3.333 9.67752341,3.369 C9.47752341,3.552 9.37852341,3.86 9.31752341,4.106 C9.26252341,4.285 9.20352341,4.233 9.16252341,4.161 C9.06152341,4.066 9.05452341,3.326 8.93252341,3.448 C8.73752341,4.006 9.04452341,4.618 9.25752341,4.558 C9.41152341,4.621 9.50852341,4.329 9.57152341,4.008 C9.61452341,3.919 9.64752341,3.908 9.66952341,3.955 C9.66352341,4.381 9.69952341,4.475 9.80952341,4.605 C9.94014418,4.72208806 10.1369272,4.72549556 10.2715234,4.613 L10.4615234,4.423 C10.5035234,4.378 10.5595234,4.376 10.6195234,4.415 C10.6775234,4.468 10.6695234,4.559 10.7945234,4.622 C10.8995234,4.664 11.1225234,4.632 11.1745234,4.542 C11.2445234,4.422 11.2615234,4.382 11.2935234,4.336 C11.3435234,4.27 11.4285234,4.299 11.4285234,4.32 C11.4205234,4.357 11.3705234,4.393 11.4045234,4.46 C11.4645234,4.504 11.4775234,4.476 11.5125234,4.466 C11.6365234,4.406 11.7295234,4.138 11.7295234,4.138 C11.7345234,4.038 11.6775234,4.045 11.6415234,4.066 C11.5935234,4.095 11.5915234,4.105 11.5435234,4.134 C11.4835234,4.143 11.3655234,4.183 11.3075234,4.093 C11.2475234,3.985 11.2475234,3.834 11.2025234,3.725 C11.2025234,3.717 11.1225234,3.553 11.1965234,3.543 C11.2335234,3.55 11.3125234,3.57 11.3255234,3.503 C11.3645234,3.439 11.2415234,3.256 11.1585234,3.163 C11.0865234,3.083 10.9865234,3.073 10.8885234,3.155 C10.8215234,3.217 10.8315234,3.287 10.8185234,3.353 C10.7958645,3.44789934 10.8192047,3.54792879 10.8815234,3.623 C10.9495234,3.756 11.0715234,3.927 11.0315234,4.169 C11.0315234,4.169 10.9605234,4.284 10.8345234,4.269 C10.7825234,4.257 10.6965234,4.235 10.6515234,3.899 C10.6175234,3.646 10.6605234,3.291 10.5515234,3.125 C10.5285234,3.062 10.5075234,3.001 10.4715234,3.005 L10.4725234,3.006 Z M10.1275234,3.033 C10.0945234,3.036 10.0585234,3.073 10.0295234,3.147 C10.0015847,3.26079289 9.98450811,3.37698043 9.97852341,3.494 C9.95852341,3.58 10.0685234,3.617 10.1195234,3.506 C10.1955234,3.301 10.1955234,3.214 10.2005234,3.128 C10.1885234,3.062 10.1605234,3.03 10.1275234,3.033 L10.1275234,3.033 Z M11.4015234,3.056 C11.3685234,3.059 11.3415234,3.078 11.3315234,3.128 C11.3189561,3.2200215 11.3233622,3.31356717 11.3445234,3.404 C11.3595234,3.468 11.4535234,3.576 11.4995234,3.639 C11.7195234,3.935 11.9325234,4.233 12.1375234,4.542 C12.1695234,4.771 12.1935234,4.995 12.2085234,5.218 C12.2415234,5.707 12.2515234,6.316 12.2215234,6.831 C12.3135234,6.834 12.4595234,6.683 12.5115234,6.461 C12.5445234,6.154 12.4995234,5.527 12.4965234,5.346 C12.4936231,5.25928607 12.4896228,5.17261243 12.4845234,5.086 C12.7225234,5.476 12.9545234,5.889 13.1815234,6.343 C13.2645234,6.303 13.2455234,5.837 13.1975234,5.772 C13.0155234,5.38 12.7645234,4.994 12.6845234,4.846 C12.6071574,4.71813626 12.5257838,4.59274077 12.4405234,4.47 C12.4284501,4.29650713 12.4084291,4.123659 12.3805234,3.952 C12.3425234,3.692 12.4875234,3.982 12.4675234,3.83 C12.4205234,3.57 12.2775234,3.393 12.1075234,3.155 C12.0525234,3.077 12.0535234,3.061 11.9695234,3.174 C11.9272265,3.26765167 11.9149988,3.37211169 11.9345234,3.473 C11.9067066,3.43230496 11.8770077,3.39292888 11.8455234,3.355 C11.6995234,3.229 11.6905234,3.222 11.5685234,3.12 C11.5305234,3.093 11.4575234,3.05 11.4015234,3.056 L11.4015234,3.056 Z M15.1775234,3.095 C15.1615234,3.092 15.1435234,3.1 15.1235234,3.13 C15.0737753,3.17328278 15.0453071,3.23605894 15.0455234,3.302 C15.0555234,3.439 15.0795234,3.58 15.0885234,3.717 L15.0985234,3.772 C15.0875531,3.75775387 15.0758716,3.74406984 15.0635234,3.731 C14.7955234,3.45 15.1865234,3.685 15.0125234,3.468 C14.8655234,3.306 14.8225234,3.255 14.6965234,3.158 C14.6335234,3.117 14.5955234,3.039 14.5745234,3.172 C14.5637079,3.28833461 14.5607012,3.40526328 14.5655234,3.522 C14.5655234,3.576 14.6215234,3.679 14.6705234,3.74 C14.8485234,3.959 15.0305234,4.192 15.2145234,4.436 C15.2535234,4.932 15.2635234,5.387 15.3025234,5.885 C15.2965234,6.097 15.2315234,6.38 15.1695234,6.407 C15.1695234,6.407 15.0745234,6.461 15.0115234,6.401 C14.9655234,6.382 14.7815234,6.094 14.7815234,6.094 C14.6875234,6.007 14.6245234,6.032 14.5575234,6.094 C14.3725234,6.272 14.2895234,6.606 14.1635234,6.837 C14.1315234,6.888 14.0395234,6.932 13.9385234,6.833 C13.6805234,6.481 13.8315234,5.98 13.7995234,6.109 C13.5695234,6.367 13.6715234,6.796 13.7235234,6.888 C13.7995234,7.039 13.8605234,7.136 14.0075234,7.211 C14.1415234,7.309 14.2455234,7.248 14.3035234,7.179 C14.4385234,7.039 14.4405234,6.682 14.5035234,6.611 C14.5475234,6.481 14.6595234,6.503 14.7135234,6.561 C14.7627042,6.63145601 14.8287006,6.68851542 14.9055234,6.727 C15.0315234,6.837 15.1815234,6.857 15.3295234,6.757 C15.4367947,6.69658711 15.5174563,6.59808003 15.5555234,6.481 C15.6195234,6.311 15.5875234,5.421 15.5735234,4.925 C15.6685234,5.059 15.7625234,5.195 15.8555234,5.334 C15.8955234,5.769 15.9155234,6.197 15.9015234,6.608 C15.8915234,6.689 16.1865234,6.364 16.1845234,6.21 L16.1845234,5.839 C16.3275234,6.067 16.4655234,6.299 16.5965234,6.534 C16.6775234,6.491 16.6495234,6.032 16.5985234,5.969 C16.4575628,5.74018033 16.3081258,5.51669199 16.1505234,5.299 C16.1288989,5.09304326 16.1022242,4.88764812 16.0705234,4.683 C16.0445234,4.546 16.0185234,4.341 15.9795234,4.179 C15.9695234,4.115 15.9365234,3.913 15.9465234,3.894 C15.9625234,3.848 16.0225234,3.895 16.0525234,3.843 C16.0965234,3.794 15.8985234,3.28 15.7975234,3.133 C15.7615234,3.067 15.6955234,3.09 15.6145234,3.197 C15.5395234,3.267 15.5665234,3.427 15.5955234,3.581 C15.6705234,3.971 15.7365234,4.367 15.7895234,4.763 L15.4555234,4.273 L15.4405234,4.196 C15.4405234,4.189 15.4245234,3.877 15.4105234,3.803 C15.4085234,3.773 15.4005234,3.763 15.4325234,3.768 C15.4655234,3.796 15.4705234,3.798 15.4915234,3.807 C15.5255234,3.813 15.5545234,3.756 15.5345234,3.703 L15.2205234,3.123 C15.2075234,3.11 15.1935234,3.097 15.1775234,3.095 L15.1775234,3.095 Z M5.43252341,3.105 C5.37452341,3.103 5.31052341,3.139 5.33552341,3.209 C5.32052341,3.247 5.44952341,3.375 5.47152341,3.446 C5.49152341,3.496 5.45152341,3.658 5.49352341,3.673 C5.53252341,3.69 5.58552341,3.561 5.60552341,3.442 C5.61652341,3.377 5.60852341,3.153 5.45652341,3.108 C5.44864028,3.10622031 5.44060205,3.10521553 5.43252341,3.105 L5.43252341,3.105 Z M16.5335234,3.106 C16.5205234,3.107 16.5035234,3.129 16.4795234,3.181 C16.4195234,3.278 16.3995234,3.452 16.4235234,3.606 C16.5665234,4.573 16.6735234,5.508 16.6945234,6.365 C16.6825234,6.446 16.6785234,6.49 16.6405234,6.592 C16.5565234,6.7 16.4635234,6.836 16.3755234,6.901 C16.2885234,6.966 16.1015234,7.029 16.0405234,7.077 C15.8475234,7.189 15.8465234,7.317 16.0025234,7.322 C16.2725234,7.291 16.5905234,7.269 16.8105234,6.937 C16.8695234,6.844 16.9385234,6.592 16.9415234,6.438 C16.9615234,5.534 16.9305234,4.65 16.7945234,3.997 C16.7855234,3.933 16.7575234,3.787 16.7685234,3.768 C16.7865234,3.723 16.8745234,3.773 16.9055234,3.721 C16.9515234,3.674 16.6775234,3.323 16.5815234,3.173 C16.5615234,3.135 16.5515234,3.104 16.5335234,3.106 Z M13.7075234,3.121 C13.6965234,3.123 13.6805234,3.14 13.6495234,3.18 C13.5745234,3.426 13.5475234,3.627 13.5765234,3.78 C13.7705234,4.79 13.9685234,5.708 13.9365234,6.669 C14.0285234,6.669 14.1345234,6.459 14.1795234,6.251 C14.2045234,5.964 14.1635234,5.79 14.1555234,5.621 C14.1485234,5.452 13.9655234,4.085 13.9275234,3.957 C13.8825234,3.716 14.1055234,3.925 14.0815234,3.785 C14.0045234,3.608 13.8115234,3.351 13.7515234,3.197 C13.7295234,3.156 13.7265234,3.117 13.7075234,3.121 L13.7075234,3.121 Z M6.82752341,3.14 C6.80252341,3.144 6.77952341,3.164 6.77152341,3.196 C6.76652341,3.217 6.78152341,3.252 6.76152341,3.263 C6.75152341,3.274 6.70852341,3.267 6.71152341,3.208 C6.71152341,3.189 6.69652341,3.17 6.68852341,3.158 C6.68052341,3.153 6.67452341,3.151 6.65952341,3.151 C6.64152341,3.151 6.64152341,3.157 6.63152341,3.172 C6.62752341,3.188 6.62152341,3.203 6.62152341,3.221 C6.61952341,3.241 6.61152341,3.249 6.59552341,3.252 C6.57852341,3.252 6.58252341,3.254 6.56852341,3.245 C6.56052341,3.236 6.55052341,3.232 6.55052341,3.217 C6.55002887,3.19923941 6.54665153,3.1816772 6.54052341,3.165 C6.53452341,3.155 6.52252341,3.15 6.50952341,3.147 C6.43752341,3.147 6.43252341,3.23 6.43652341,3.261 C6.43152341,3.267 6.42852341,3.413 6.52652341,3.454 C6.65852341,3.517 6.90452341,3.49 6.89452341,3.278 C6.893504,3.24494787 6.89150312,3.21193332 6.88852341,3.179 C6.87552341,3.148 6.85052341,3.136 6.82652341,3.14 L6.82752341,3.14 Z M8.59252341,3.142 C8.55062681,3.14431064 8.50971018,3.15556272 8.47252341,3.175 C8.38552341,3.259 8.36452341,3.393 8.43352341,3.476 C8.50052341,3.508 8.56752341,3.575 8.52352341,3.612 C8.33352341,3.814 7.84152341,4.152 7.81652341,4.213 L7.81652341,4.22 L7.81752341,4.221 L7.81852341,4.221 L7.81952341,4.222 L7.82052341,4.222 L7.82152341,4.223 C7.84652341,4.24 8.15452341,4.239 8.18852341,4.224 L8.18952341,4.223 L8.19052341,4.223 L8.19052341,4.222 C8.29652341,4.183 8.79852341,3.609 8.79852341,3.609 L8.72252341,3.548 C8.69452341,3.524 8.69752341,3.5 8.72252341,3.476 C8.84752341,3.404 8.80752341,3.244 8.74252341,3.172 C8.6956346,3.15017087 8.6442012,3.13988419 8.59252341,3.142 L8.59252341,3.142 Z M13.2085234,3.144 C13.1955234,3.145 13.1785234,3.166 13.1545234,3.218 C13.0861797,3.34890092 13.0534199,3.49545793 13.0595234,3.643 C13.1885234,4.533 13.2275234,5.312 13.3115234,6.202 C13.3185234,6.288 13.3055234,6.413 13.2485234,6.463 C13.0375234,6.684 12.7315234,6.957 12.3995234,7.082 C12.3635234,7.122 12.4895234,7.293 12.6495234,7.293 C12.9195234,7.262 13.1565234,7.111 13.3755234,6.713 C13.4345234,6.619 13.5375234,6.42 13.5405234,6.266 C13.5605234,5.362 13.4955234,4.659 13.3605234,4.006 C13.351536,3.95343844 13.353923,3.89956083 13.3675234,3.848 C13.3855234,3.828 13.4445234,3.848 13.4755234,3.797 C13.5215234,3.75 13.3525234,3.36 13.2565234,3.21 C13.2375234,3.172 13.2265234,3.142 13.2085234,3.144 L13.2085234,3.144 Z M6.05852341,3.171 C6.02052341,3.176 5.98552341,3.206 5.96852341,3.246 C5.96252341,3.389 5.96152341,3.532 5.97852341,3.663 C6.04252341,3.894 6.06352341,4.097 6.09452341,4.333 C6.10352341,4.65 5.91152341,4.47 5.92052341,4.313 C5.96452341,4.109 5.95252341,3.789 5.91352341,3.707 C5.88252341,3.626 5.84652341,3.606 5.77052341,3.619 C5.71052341,3.616 5.55552341,3.785 5.51152341,4.065 C5.51152341,4.065 5.47552341,4.209 5.45952341,4.337 C5.43852341,4.482 5.34252341,4.585 5.27552341,4.317 C5.21752341,4.123 5.18252341,3.644 5.08552341,3.757 C5.05752341,4.13 5.02552341,4.787 5.34252341,4.855 C5.72652341,4.892 5.51452341,4.205 5.65352341,4.081 C5.67952341,4.02 5.72852341,4.019 5.73352341,4.096 L5.73352341,4.679 C5.72952341,4.869 5.85352341,4.925 5.95052341,4.964 C6.05052341,4.956 6.11852341,4.959 6.15752341,5.057 L6.20552341,6.067 C6.20552341,6.067 6.43852341,6.133 6.44952341,5.499 C6.46052341,5.127 6.37552341,4.815 6.42552341,4.742 C6.42752341,4.672 6.51852341,4.668 6.58152341,4.702 C6.68152341,4.773 6.72652341,4.86 6.88252341,4.825 C7.12052341,4.76 7.26252341,4.645 7.26652341,4.462 C7.2597834,4.28375899 7.2229298,4.10794363 7.15752341,3.942 C7.16752341,3.911 7.11252341,3.829 7.12252341,3.797 C7.16552341,3.864 7.22952341,3.859 7.24452341,3.797 C7.20452341,3.664 7.14152341,3.537 7.03952341,3.481 C6.95552341,3.407 6.83252341,3.423 6.78752341,3.577 C6.76752341,3.755 6.85252341,3.966 6.98152341,4.138 C7.02245262,4.22533476 7.0396959,4.32189708 7.03152341,4.418 C6.96152341,4.458 6.89352341,4.441 6.83552341,4.38 C6.83552341,4.38 6.64652341,4.239 6.64652341,4.207 C6.69652341,3.887 6.65752341,3.849 6.62952341,3.76 C6.60952341,3.637 6.55152341,3.598 6.50452341,3.514 C6.45752341,3.464 6.39352341,3.464 6.36252341,3.514 C6.27952341,3.659 6.31852341,3.97 6.37852341,4.109 C6.42252341,4.237 6.48852341,4.317 6.45852341,4.317 C6.43152341,4.39 6.37852341,4.373 6.33852341,4.289 C6.29211575,4.11076891 6.26958543,3.92716362 6.27152341,3.743 C6.25452341,3.599 6.23652341,3.293 6.14152341,3.214 C6.11652341,3.18 6.08652341,3.168 6.05752341,3.171 L6.05852341,3.171 Z M7.40652341,3.173 C7.38752341,3.176 7.36652341,3.187 7.34152341,3.193 C7.25952341,3.218 7.18352341,3.289 7.20752341,3.426 C7.30452341,4.013 7.36752341,4.461 7.46352341,5.047 C7.47852341,5.116 7.42052341,5.207 7.34652341,5.197 C7.22052341,5.112 7.18952341,4.939 6.97352341,4.947 C6.81752341,4.948 6.63952341,5.117 6.61752341,5.281 C6.58686096,5.4071637 6.58686096,5.5388363 6.61752341,5.665 C6.72752341,5.797 6.85852341,5.783 6.97352341,5.753 C7.06852341,5.714 7.14652341,5.621 7.17952341,5.643 L7.18052341,5.643 L7.18052341,5.644 C7.20052341,5.68 7.17852341,5.985 6.73452341,6.221 C6.46152341,6.344 6.24452341,6.373 6.12752341,6.151 C6.05552341,6.011 6.13252341,5.481 5.95452341,5.603 C5.42752341,6.963 7.18952341,7.152 7.38652341,5.659 C7.39952341,5.617 7.43852341,5.575 7.46652341,5.585 C7.47752341,5.59 7.48852341,5.607 7.49252341,5.637 C7.45252341,6.989 6.12952341,7.081 5.90452341,6.657 C5.84852341,6.556 5.83252341,6.333 5.82652341,6.199 C5.81652341,6.119 5.79652341,6.072 5.77252341,6.053 C5.71952341,6.013 5.64752341,6.118 5.63252341,6.3 C5.60952341,6.447 5.61552341,6.487 5.61552341,6.628 C5.68552341,7.696 7.38852341,7.238 7.66552341,6.355 C7.80152341,5.899 7.66152341,5.555 7.70752341,5.513 L7.70952341,5.513 L7.71152341,5.511 L7.71352341,5.511 C7.71544451,5.51011659 7.71745647,5.50944593 7.71952341,5.509 C7.88952341,5.691 8.12552341,5.532 8.17752341,5.469 C8.19952341,5.438 8.25552341,5.417 8.29452341,5.459 C8.42652341,5.553 8.65752341,5.509 8.70552341,5.341 C8.73352341,5.178 8.75752341,5.01 8.76252341,4.835 C8.67652341,4.862 8.60752341,4.882 8.57952341,4.911 C8.57295889,4.91757343 8.56844295,4.92591055 8.56652341,4.935 L8.54452341,5.08 C8.54379906,5.08386032 8.54244787,5.08757609 8.54052341,5.091 C8.5364476,5.0971918 8.53096502,5.10233173 8.52452341,5.106 C8.49452341,5.123 8.44152341,5.113 8.43852341,5.069 C8.39852341,4.884 8.22952341,4.859 8.12852341,5.147 C8.05852341,5.203 7.93352341,5.214 7.92052341,5.13 C7.93752341,4.937 7.85952341,4.911 7.70352341,5.002 L7.55352341,3.872 C7.61852341,3.87 7.67852341,3.918 7.73752341,3.843 C7.67352341,3.643 7.53752341,3.236 7.46052341,3.198 L7.45852341,3.198 C7.45379997,3.19208978 7.44843363,3.18672343 7.44252341,3.182 L7.43752341,3.179 C7.42829211,3.17420299 7.41788961,3.17212249 7.40752341,3.173 L7.40652341,3.173 Z M12.6655234,3.176 C12.5985234,3.174 12.5235234,3.216 12.5525234,3.301 C12.5355234,3.347 12.6975234,3.504 12.7235234,3.589 C12.7705234,3.721 12.6875234,3.846 12.7365234,3.864 C12.7815234,3.884 12.8445234,3.729 12.8675234,3.584 C12.8945234,3.468 12.8115234,3.229 12.6935234,3.179 C12.6843146,3.17706148 12.6749338,3.1760564 12.6655234,3.176 L12.6655234,3.176 Z M8.56852341,3.321 C8.59852341,3.318 8.63652341,3.346 8.65452341,3.386 C8.67452341,3.429 8.66452341,3.469 8.63252341,3.477 C8.60052341,3.485 8.55952341,3.457 8.54052341,3.414 C8.52052341,3.372 8.53052341,3.33 8.56252341,3.322 L8.56852341,3.322 L8.56852341,3.321 Z M16.1685234,3.518 C16.1075234,3.516 16.0405234,3.563 16.0665234,3.654 C16.0515234,3.704 16.1975234,3.874 16.2215234,3.966 C16.2425234,4.032 16.1895234,4.245 16.2335234,4.264 C16.2745234,4.286 16.3325234,4.117 16.3535234,3.961 C16.3655234,3.876 16.3025234,3.576 16.1945234,3.522 C16.186042,3.51965899 16.1773162,3.51831657 16.1685234,3.518 L16.1685234,3.518 Z M11.9675234,3.621 C11.9735234,3.646 11.9785234,3.671 11.9825234,3.697 C11.9955234,3.753 12.0065234,3.807 12.0175234,3.862 C11.9838358,3.81410982 11.9484808,3.76741451 11.9115234,3.722 C11.8015234,3.592 11.9145234,3.637 11.9675234,3.622 L11.9675234,3.621 Z M12.9355234,4.097 C12.9115234,4.101 12.8885234,4.122 12.8805234,4.154 C12.8755234,4.175 12.8905234,4.21 12.8715234,4.22 C12.8615234,4.231 12.8175234,4.225 12.8195234,4.166 C12.8195234,4.148 12.8055234,4.127 12.7975234,4.116 C12.7895234,4.11 12.7835234,4.108 12.7685234,4.108 C12.7505234,4.109 12.7505234,4.114 12.7405234,4.129 C12.7365234,4.145 12.7305234,4.16 12.7305234,4.179 C12.7285234,4.199 12.7205234,4.206 12.7055234,4.209 C12.6885234,4.209 12.6915234,4.211 12.6775234,4.202 C12.6695234,4.193 12.6595234,4.19 12.6595234,4.174 C12.6593502,4.15629447 12.6563108,4.13873384 12.6505234,4.122 C12.6435234,4.112 12.6315234,4.109 12.6185234,4.105 C12.5465234,4.105 12.5425234,4.187 12.5465234,4.218 C12.5415234,4.224 12.5375234,4.372 12.6365234,4.412 C12.7665234,4.475 13.0155234,4.447 13.0045234,4.235 C13.0031773,4.20193761 13.0008429,4.16892286 12.9975234,4.136 C12.9845234,4.105 12.9595234,4.093 12.9355234,4.097 L12.9355234,4.097 Z M8.51552341,4.141 C8.49326971,4.14099323 8.47157829,4.14799046 8.45352341,4.161 C8.33752341,4.223 8.29252341,4.41 8.36452341,4.519 C8.43252341,4.615 8.53952341,4.58 8.55452341,4.58 C8.66752341,4.595 8.73552341,4.366 8.73552341,4.366 C8.73552341,4.366 8.73952341,4.302 8.60352341,4.423 C8.54652341,4.433 8.53952341,4.413 8.52452341,4.381 C8.5109673,4.32095927 8.51728437,4.25813954 8.54252341,4.202 C8.55552341,4.167 8.54252341,4.144 8.51552341,4.142 L8.51552341,4.141 Z M14.7635234,4.171 C14.6995234,4.167 14.6305234,4.209 14.6135234,4.297 C14.6135234,4.349 14.6365234,4.378 14.6315234,4.425 C14.6255234,4.452 14.5975234,4.47 14.5315234,4.438 C14.5415234,4.428 14.4875234,4.353 14.4875234,4.353 C14.4365234,4.322 14.3675234,4.355 14.3215234,4.384 C14.2888985,4.44603016 14.2834669,4.51881452 14.3065234,4.585 C14.3815234,4.723 14.6365234,4.957 14.7575234,4.959 C14.7605234,4.835 14.7725234,4.671 14.7785234,4.569 C14.7815234,4.529 14.7905234,4.487 14.8285234,4.477 C14.8645234,4.467 14.9285234,4.515 14.9295234,4.474 C14.9235234,4.395 14.9075234,4.279 14.8625234,4.224 C14.8398696,4.19141294 14.8031863,4.17140387 14.7635234,4.17 L14.7635234,4.171 Z M9.59152341,4.601 L9.58652341,4.604 L9.58352341,4.606 C9.57152341,4.616 9.55552341,4.638 9.52152341,4.662 C9.46452341,4.727 9.45452341,4.772 9.45752341,4.903 C9.46152341,4.917 9.56752341,5.21 9.65552341,5.416 C9.71552341,5.63 9.77152341,5.876 9.73052341,6.107 C9.59052341,6.413 9.30652341,6.688 9.03252341,6.837 C8.89352341,6.882 8.77252341,6.867 8.74052341,6.837 L8.74052341,6.835 C8.68616798,6.79805584 8.65626853,6.7344237 8.66252341,6.669 L8.66352341,6.667 C8.89452341,6.507 9.15852341,6.377 9.36452341,5.942 C9.42552341,5.776 9.44452341,5.677 9.38452341,5.42 C9.36796814,5.3298911 9.32677894,5.24612819 9.26552341,5.178 L9.26652341,5.178 C9.30652341,5.158 9.40852341,5.234 9.42352341,5.186 C9.39299092,5.04630798 9.32366937,4.91806312 9.22352341,4.816 C9.14052341,4.741 9.05152341,4.732 8.97552341,4.8 C8.89152341,4.847 8.87352341,5.017 8.91352341,5.165 C8.95952341,5.277 9.08152341,5.296 9.16852341,5.521 L9.16852341,5.522 C9.17052341,5.536 9.19852341,5.69 9.15452341,5.752 C9.11952341,5.863 8.66152341,6.225 8.62852341,6.246 L8.62552341,6.248 L8.62552341,6.249 L8.62352341,6.25 L8.62352341,6.251 L8.62152341,6.251 L8.61952341,6.251 L8.61952341,6.249 L8.61952341,6.247 C8.61752341,6.238 8.61952341,6.215 8.61952341,6.178 C8.61552341,6.111 8.64352341,5.958 8.64152341,5.931 L8.64152341,5.929 L8.63752341,5.929 C8.48752341,6.026 8.43752341,6.326 8.40852341,6.414 C8.02552341,6.679 7.59052341,6.876 7.33952341,7.144 C7.20952341,7.348 8.23952341,6.91 8.35952341,6.857 L8.36152341,6.86 C8.38452341,6.885 8.38652341,6.973 8.45452341,7.051 C8.58930204,7.21369542 8.80596747,7.28383891 9.01052341,7.231 C9.38252341,7.096 9.59652341,6.843 9.81452341,6.562 C9.84452341,6.517 9.89452341,6.482 9.93952341,6.516 C10.0895234,6.851 10.5195234,7.09 11.0785234,7.114 C11.2075234,6.957 11.1455234,6.88 11.0935234,6.847 C11.0765234,6.837 10.8155234,6.735 10.7755234,6.633 C10.7495234,6.539 10.8115234,6.455 10.9355234,6.393 C11.2945234,6.349 11.6455234,6.301 11.9875234,6.191 C12.0009818,6.0642912 12.0404739,5.94172945 12.1035234,5.831 C12.1335234,5.78 12.1545234,5.775 12.1625234,5.767 L12.1645234,5.765 L12.1645234,5.761 L12.1645234,5.751 L12.1065234,5.717 L10.9635234,5.712 C10.952477,5.70817922 10.9420369,5.70279082 10.9325234,5.696 L10.9305234,5.694 L10.9295234,5.694 L10.9285234,5.692 L10.9275234,5.69 L10.9275234,5.69 L10.9275234,5.688 L10.9265234,5.688 L10.9265234,5.686 L10.9265234,5.684 L10.9265234,5.682 L10.9265234,5.68 L10.9265234,5.678 L10.9285234,5.676 C10.9387265,5.66651612 10.9510807,5.65965268 10.9645234,5.656 C11.2365234,5.618 11.7215234,5.539 11.7545234,5.072 C11.7485234,4.829 11.6505234,4.67 11.3525234,4.626 C11.1325234,4.643 10.9765234,4.856 11.0025234,5.088 C10.9915234,5.151 11.0225234,5.274 10.9595234,5.288 C10.5395234,5.327 10.0795234,5.59 10.0655234,5.778 L10.0645234,5.778 L10.0635234,5.779 L10.0615234,5.78 L10.0595234,5.78 L10.0565234,5.781 L10.0535234,5.781 C10.0525242,5.7809444 10.0515226,5.7809444 10.0505234,5.781 L10.0465234,5.781 C10.0185234,5.773 9.98352341,5.728 9.98952341,5.664 C9.96947878,5.32028249 9.87095882,4.98572513 9.70152341,4.686 C9.64152341,4.627 9.61552341,4.603 9.59952341,4.6 L9.59452341,4.6 L9.59352341,4.6 L9.59252341,4.6 L9.59152341,4.6 L9.59152341,4.601 Z M10.6855234,4.773 C10.6625234,4.777 10.6395234,4.797 10.6305234,4.829 C10.6255234,4.85 10.6405234,4.886 10.6215234,4.896 C10.6115234,4.907 10.5685234,4.901 10.5695234,4.842 C10.5695234,4.824 10.5565234,4.803 10.5475234,4.792 C10.5395234,4.786 10.5355234,4.784 10.5195234,4.784 C10.5015234,4.785 10.5015234,4.79 10.4905234,4.805 C10.4865234,4.821 10.4805234,4.836 10.4805234,4.855 C10.4785234,4.875 10.4705234,4.882 10.4555234,4.885 C10.4385234,4.885 10.4425234,4.887 10.4285234,4.878 C10.4205234,4.869 10.4095234,4.866 10.4095234,4.85 C10.409638,4.8323516 10.4069374,4.81479785 10.4015234,4.798 C10.3945234,4.788 10.3815234,4.785 10.3685234,4.781 C10.2975234,4.781 10.2925234,4.863 10.2965234,4.894 C10.2915234,4.9 10.2875234,5.048 10.3865234,5.088 C10.5175234,5.151 10.8315234,5.114 10.7545234,4.911 C10.7531773,4.87793761 10.7508429,4.84492286 10.7475234,4.812 C10.7345234,4.781 10.7095234,4.769 10.6855234,4.773 L10.6855234,4.773 Z M15.1015234,4.954 L15.0905234,4.955 C15.0905234,4.955 14.4805234,5.389 14.4655234,5.405 C14.4055234,5.458 14.4355234,5.647 14.4655234,5.625 C14.5085234,5.642 15.1225234,5.225 15.1115234,5.177 C15.1375234,5.179 15.1515234,4.963 15.1015234,4.954 L15.1015234,4.954 Z M11.2615234,5.019 C11.2932675,5.01764809 11.3246675,5.02602143 11.3515234,5.043 C11.3965234,5.069 11.4245234,5.109 11.4215234,5.138 L11.4215234,5.141 L11.4195234,5.144 L11.4185234,5.147 L11.4175234,5.149 L11.4165234,5.151 C11.4147999,5.15355679 11.4127865,5.15590572 11.4105234,5.158 C11.3885234,5.178 11.3375234,5.175 11.2905234,5.148 C11.2455234,5.121 11.2175234,5.081 11.2205234,5.053 L11.2205234,5.05 L11.2255234,5.04 L11.2275234,5.036 L11.2275234,5.035 C11.229378,5.03316625 11.2313853,5.03149356 11.2335234,5.03 C11.2419875,5.02372324 11.2520258,5.0199156 11.2625234,5.019 L11.2615234,5.019 Z M5.92152341,5.129 C5.60552341,5.134 5.14152341,5.543 5.13052341,5.769 C5.46352341,5.609 5.79052341,5.455 6.13052341,5.289 C6.07552341,5.208 6.12652341,5.134 5.92052341,5.129 L5.92152341,5.129 Z M6.94552341,5.271 C6.97552341,5.271 7.00852341,5.286 7.02552341,5.33 C7.04152341,5.37 7.02652341,5.41 7.00852341,5.432 L7.00752341,5.435 C6.99352341,5.452 6.94752341,5.445 6.91452341,5.445 C6.87452341,5.443 6.85452341,5.436 6.83052341,5.404 C6.81852341,5.367 6.85352341,5.332 6.86952341,5.304 C6.87189118,5.30105031 6.87457372,5.29836777 6.87752341,5.296 C6.89650615,5.27986293 6.92060856,5.27100174 6.94552341,5.271 L6.94552341,5.271 Z M14.9825234,5.396 C14.9265234,5.403 14.8725234,5.456 14.8975234,5.541 C14.8815234,5.591 14.9735234,5.766 14.9975234,5.858 C15.0185234,5.924 14.9695234,6.111 15.0145234,6.13 C15.0545234,6.152 15.1635234,6.02 15.1595234,5.853 C15.1715234,5.768 15.1295234,5.453 15.0215234,5.399 C15.0085247,5.39533575 14.9949232,5.39431563 14.9815234,5.396 L14.9825234,5.396 Z M8.15652341,5.704 C8.10652341,5.708 8.06252341,5.734 8.08252341,5.804 C8.07952341,5.855 8.22252341,5.917 8.23152341,6.034 C8.25152341,6.083 8.20152341,6.238 8.24352341,6.252 C8.28252341,6.268 8.33652341,6.145 8.35752341,6.03 C8.36852341,5.967 8.30752341,5.748 8.20552341,5.708 C8.18913319,5.70428634 8.17229557,5.70293933 8.15552341,5.704 L8.15652341,5.704 Z M10.1995234,5.984 L10.2115234,5.984 C10.3385234,6.018 10.5265234,6.022 10.6895234,6.038 C10.8225234,6.047 10.8875234,6.151 10.7635234,6.194 C10.6405234,6.236 10.5235234,6.269 10.5225234,6.446 C10.5385234,6.534 10.5355234,6.58 10.5215234,6.601 C10.5202983,6.60275042 10.5189622,6.60442051 10.5175234,6.606 L10.5165234,6.607 L10.5155234,6.608 L10.5145234,6.609 L10.5135234,6.61 L10.5115234,6.611 C10.5096241,6.6121898 10.5076148,6.61319441 10.5055234,6.614 L10.4995234,6.615 C10.4695234,6.62 10.4275234,6.592 10.3965234,6.575 C10.3205234,6.521 10.1085234,6.39 10.0785234,6.107 C10.0745234,6.044 10.1215234,5.989 10.1985234,5.983 L10.1995234,5.984 Z M5.20952341,6.2 C5.20152341,6.2 5.18552341,6.224 5.16452341,6.251 C4.97652341,6.551 4.95952341,6.998 5.06352341,7.131 C5.11852341,7.194 5.20952341,7.222 5.27652341,7.202 C5.39452341,7.152 5.44652341,6.912 5.41852341,6.824 C5.37852341,6.763 5.34852341,6.753 5.30852341,6.805 C5.22552341,6.975 5.19052341,6.859 5.18352341,6.765 C5.17407131,6.60626568 5.18211977,6.44697319 5.20752341,6.29 C5.21752341,6.224 5.21752341,6.2 5.20952341,6.2 L5.20952341,6.2 Z M11.6145234,6.594 C11.5993185,6.59304982 11.584134,6.59615573 11.5705234,6.603 C11.5045311,6.64411038 11.444901,6.69464435 11.3935234,6.753 C11.3675234,6.773 11.3705234,6.79 11.3785234,6.825 C11.3985234,6.871 11.4345234,6.856 11.4745234,6.835 C11.5275234,6.827 11.5545234,6.862 11.5495234,6.927 C11.5245234,7.007 11.5595234,7.037 11.5595234,7.042 C11.5595234,7.047 11.6115234,7.091 11.6725234,7.056 C11.8005234,7.006 11.8795234,6.959 12.0585234,6.921 C12.1055234,6.92 12.1025234,6.794 12.0285234,6.79 C11.9315234,6.794 11.8425234,6.8 11.7455234,6.876 C11.6855234,6.889 11.6755234,6.853 11.6625234,6.821 C11.6475234,6.74 11.6965234,6.683 11.6865234,6.623 C11.6895234,6.625 11.6565234,6.596 11.6145234,6.593 L11.6145234,6.594 Z M15.7155234,6.747 C15.6915234,6.747 15.6665234,6.751 15.6305234,6.754 C15.5905234,6.762 15.5775234,6.779 15.5705234,6.827 C15.5735234,6.899 15.6175234,6.895 15.6625234,6.924 C15.6885234,6.957 15.7055234,6.987 15.6605234,7.042 C15.6175234,7.081 15.5875234,7.102 15.5445234,7.142 C15.5245234,7.176 15.5115234,7.229 15.5745234,7.246 C15.6875234,7.278 15.9515234,7.106 15.9515234,7.103 C15.9945234,7.071 15.9805234,7.01 15.9765234,7.01 C15.9515234,6.981 15.8955234,6.998 15.8575234,6.994 C15.8395234,6.994 15.7805234,6.984 15.8085234,6.933 C15.8289556,6.90485761 15.8451294,6.87385797 15.8565234,6.841 C15.8745234,6.801 15.8585234,6.775 15.7945234,6.754 C15.768533,6.74873153 15.7420353,6.74638363 15.7155234,6.747 L15.7155234,6.747 Z M14.0025234,10.215 L14.0015234,10.216 C13.8115234,10.266 13.8175234,10.462 13.9395234,10.548 C11.9365234,10.548 8.86252341,10.514 8.20352341,10.514 C7.83452341,10.514 6.66752341,10.47 6.64552341,10.47 C6.89552341,10.836 7.25752341,10.91 7.73252341,10.918 C8.62252341,10.918 12.7445234,10.908 13.9175234,10.908 C13.8335234,11.055 13.9245234,11.294 13.9905234,11.338 C13.9945088,11.340681 13.9988976,11.3427066 14.0035234,11.344 L14.0065234,11.344 C14.0835234,11.362 14.1185234,11.306 14.1445234,11.264 C14.2705234,11.276 14.9795234,11.286 15.0445234,11.264 L15.0445234,11.262 C15.0895234,11.327 15.1325234,11.388 15.2165234,11.377 C15.3625234,11.347 15.4775234,11.33 15.4815234,11.033 C15.4815234,11.033 15.4665234,10.528 15.1345234,10.559 C15.0555234,10.571 14.8345234,10.593 14.8345234,10.593 C14.5805234,10.563 14.3935234,10.56 14.1065234,10.549 C14.1325234,10.516 14.1795234,10.379 14.1225234,10.33 C14.1075234,10.318 14.0855234,10.311 14.0545234,10.313 L14.0535234,10.313 L14.0515234,10.313 L14.0505234,10.313 L14.0475234,10.311 C14.0456655,10.3095363 14.0439871,10.3078579 14.0425234,10.306 L14.0405234,10.304 C14.0255234,10.284 14.0175234,10.232 14.0085234,10.218 L14.0075234,10.218 L14.0065234,10.216 L14.0045234,10.216 L14.0035234,10.216 L14.0025234,10.216 L14.0025234,10.215 Z M14.1385234,10.938 C14.4315234,10.953 14.7065234,10.941 14.9985234,10.955 C15.0445234,10.995 15.0215234,11.085 14.9915234,11.101 C14.989914,11.1018018 14.9882418,11.1024707 14.9865234,11.103 L14.9785234,11.103 L14.7335234,11.096 C14.7335234,11.092 14.7335234,11.086 14.7315234,11.082 C14.7085234,11.016 14.5455234,11.02 14.5075234,11.072 L14.5055234,11.075 L14.5035234,11.079 C14.5027783,11.0806342 14.5021109,11.0823028 14.5015234,11.084 L14.5005234,11.091 L14.4995234,11.099 C14.3715234,11.115 14.2555234,11.095 14.1275234,11.09 C14.0895234,11.044 14.0945234,10.959 14.1375234,10.938 L14.1385234,10.938 Z" id="Shape" fill="#FFFFFF" fill-rule="nonzero"></path>
        </g>
    </g>
</svg>