<svg width="17" height="16" viewBox="0 0 17 16" fill="none" xmlns="http://www.w3.org/2000/svg">
<path d="M8.85775 1.85923C10.9843 1.85923 11.2501 1.85923 12.114 1.92259C14.307 1.98595 15.3038 2.99969 15.3702 5.02717C15.4367 5.85084 15.4367 6.04092 15.4367 8.0684C15.4367 10.0959 15.4367 10.3493 15.3702 11.1096C15.3038 13.1371 14.2405 14.1509 12.114 14.2142C11.2501 14.2776 11.0507 14.2776 8.85775 14.2776C6.73123 14.2776 6.46542 14.2776 5.66797 14.2142C3.475 14.1509 2.47819 13.1371 2.41174 11.1096C2.34528 10.286 2.34528 10.0959 2.34528 8.0684C2.34528 6.04092 2.34528 5.78748 2.41174 5.02717C2.47819 2.99969 3.54145 1.98595 5.66797 1.92259C6.46542 1.85923 6.73123 1.85923 8.85775 1.85923ZM8.85775 0.465332C6.66478 0.465332 6.39896 0.465332 5.60152 0.528691C2.67755 0.655409 1.08266 2.17602 0.949755 4.96381C0.883301 5.72412 0.883301 5.97756 0.883301 8.0684C0.883301 10.1592 0.883301 10.4127 0.949755 11.173C1.08266 13.9608 2.67755 15.4814 5.60152 15.6081C6.39896 15.6715 6.66478 15.6715 8.85775 15.6715C11.0507 15.6715 11.3165 15.6715 12.114 15.6081C15.038 15.4814 16.6328 13.9608 16.7658 11.173C16.8322 10.4127 16.8322 10.1592 16.8322 8.0684C16.8322 5.97756 16.8322 5.72412 16.7658 4.96381C16.6328 2.17602 15.038 0.655409 12.114 0.528691C11.3165 0.465332 11.0507 0.465332 8.85775 0.465332ZM8.85775 4.14015C6.59833 4.14015 4.73762 5.9142 4.73762 8.0684C4.73762 10.2226 6.59833 11.9967 8.85775 11.9967C11.1172 11.9967 12.9779 10.2226 12.9779 8.0684C12.9779 5.9142 11.1172 4.14015 8.85775 4.14015ZM8.85775 10.6028C7.39577 10.6028 6.1996 9.4623 6.1996 8.0684C6.1996 6.6745 7.39577 5.53404 8.85775 5.53404C10.3197 5.53404 11.5159 6.6745 11.5159 8.0684C11.5159 9.4623 10.3197 10.6028 8.85775 10.6028ZM13.1108 3.12641C12.5792 3.12641 12.1804 3.50656 12.1804 4.01343C12.1804 4.5203 12.5792 4.90045 13.1108 4.90045C13.6424 4.90045 14.0411 4.5203 14.0411 4.01343C14.0411 3.50656 13.6424 3.12641 13.1108 3.12641Z" fill="#4F4F4F"/>
</svg>
