<svg width="18" height="13" viewBox="0 0 18 13" fill="none" xmlns="http://www.w3.org/2000/svg">
<path d="M5.63012 12.0708C11.9656 12.0708 15.4303 7.45258 15.4303 3.44811C15.4303 3.3169 15.4272 3.18637 15.4204 3.05633C16.0929 2.6286 16.6775 2.0947 17.1387 1.48721C16.5215 1.72846 15.8574 1.89091 15.1607 1.96416C15.8718 1.58901 16.4179 0.995299 16.6754 0.287679C16.0098 0.634937 15.2728 0.887275 14.4884 1.02336C13.8596 0.434344 12.9644 0.065918 11.974 0.065918C10.0717 0.065918 8.52902 1.4232 8.52902 3.09615C8.52902 3.33404 8.55938 3.56521 8.61819 3.78714C5.75576 3.66063 3.21736 2.45456 1.51872 0.620993C1.22257 1.06872 1.05206 1.58918 1.05206 2.14409C1.05206 3.19544 1.66021 4.12364 2.58495 4.66679C2.01995 4.6515 1.48913 4.51475 1.02494 4.28761C1.02418 4.30021 1.02418 4.31298 1.02418 4.32625C1.02418 5.79408 2.21166 7.01948 3.78751 7.29718C3.49824 7.36657 3.19387 7.40386 2.87958 7.40386C2.6577 7.40386 2.44194 7.38438 2.23209 7.34926C2.6705 8.55316 3.94218 9.42945 5.44987 9.45415C4.27079 10.2671 2.78563 10.7515 1.17197 10.7515C0.894149 10.7515 0.619954 10.7375 0.350342 10.7095C1.87464 11.5689 3.6846 12.0708 5.63012 12.0708Z" fill="#4F4F4F"/>
</svg>
