<svg width="21" height="15" viewBox="0 0 21 15" fill="none" xmlns="http://www.w3.org/2000/svg">
<g clip-path="url(#clip0)">
<path d="M20.4462 1.15385C20.0481 0.467308 19.3154 0 18.4615 0H10.3846V1.15385H20.4462ZM0 11.5385H20.7692V12.6923H0V11.5385ZM10.3846 6.92308H20.7692V8.07692H10.3846V6.92308ZM10.3846 4.61538H20.7692V5.76923H10.3846V4.61538ZM0 9.23077H20.7692V10.3846H0V9.23077ZM2.30769 15H18.4615C19.3154 15 20.0481 14.5327 20.4462 13.8462H0.323077C0.721154 14.5327 1.45385 15 2.30769 15ZM10.3846 2.30769H20.7692V3.46154H10.3846V2.30769Z" fill="#B22334"/>
<path d="M0.0403846 13.0846C0.0519231 13.1366 0.0634615 13.1943 0.075 13.2462C0.0923077 13.3039 0.109615 13.3616 0.126923 13.4193C0.178846 13.5693 0.242308 13.7135 0.317308 13.8462H20.4462C20.5212 13.7077 20.5904 13.5693 20.6365 13.4193C20.6769 13.3096 20.7058 13.2 20.7231 13.0846C20.7519 12.9577 20.7692 12.825 20.7692 12.6923H0C0 12.825 0.0173077 12.9577 0.0403846 13.0846ZM0 10.3846H20.7692V11.5385H0V10.3846ZM0 8.07695V9.23079H20.7692V8.07695H10.3846H0ZM10.3846 5.76925H20.7692V6.9231H10.3846V5.76925ZM10.3846 3.46156H20.7692V4.61541H10.3846V3.46156ZM0.075 1.75387C0.0923077 1.69618 0.109615 1.63849 0.126923 1.58079C0.109615 1.63849 0.0865385 1.69618 0.075 1.75387ZM10.3846 2.30772H20.7692C20.7692 2.17502 20.7519 2.04233 20.7288 1.91541C20.7058 1.80002 20.6769 1.69041 20.6423 1.58079C20.5904 1.43079 20.5269 1.28656 20.4519 1.15387H10.3846V2.30772Z" fill="#EEEEEE"/>
<path d="M10.3846 0H2.30769C1.03269 0 0 1.03269 0 2.30769V8.07692H10.3846V0Z" fill="#3C3B6E"/>
<path d="M1.15381 1.57502L1.5115 1.83464L1.37304 2.25002L1.73073 1.99041L2.08842 2.25002L1.94996 1.82887L2.30765 1.57502H1.86919L1.73073 1.15387L1.59804 1.57502H1.15381ZM2.30765 2.72887L2.66535 2.98848L2.52689 3.40387L2.88458 3.14425L3.24227 3.40387L3.10381 2.98848L3.4615 2.72887H3.02304L2.88458 2.30772L2.74612 2.72887H2.30765ZM4.61535 2.72887L4.97304 2.98848L4.83458 3.40387L5.19227 3.14425L5.54996 3.40387L5.4115 2.98848L5.76919 2.72887H5.33073L5.19227 2.30772L5.05958 2.72887H4.61535ZM6.92304 2.72887L7.28073 2.98848L7.14227 3.40387L7.49996 3.14425L7.85765 3.40387L7.71919 2.98272L8.07689 2.72887H7.63842L7.49996 2.30772L7.36727 2.72887H6.92304ZM2.30765 5.03656L2.66535 5.29618L2.52689 5.71156L2.88458 5.45195L3.24227 5.71156L3.10381 5.29618L3.4615 5.03656H3.02304L2.88458 4.61541L2.74612 5.03656H2.30765ZM4.61535 5.03656L4.97304 5.29618L4.83458 5.71156L5.19227 5.45195L5.54996 5.71156L5.4115 5.29618L5.76919 5.03656H5.33073L5.19227 4.61541L5.05958 5.03656H4.61535ZM6.92304 5.03656L7.28073 5.29618L7.14227 5.71156L7.49996 5.45195L7.85765 5.71156L7.71919 5.29041L8.07689 5.03656H7.63842L7.49996 4.61541L7.36727 5.03656H6.92304ZM3.4615 1.57502L3.81919 1.83464L3.68073 2.25002L4.03842 1.99041L4.39612 2.25002L4.25765 1.82887L4.61535 1.57502H4.17689L4.03842 1.15387L3.89996 1.57502H3.4615ZM5.76919 1.57502L6.12689 1.83464L5.98842 2.25002L6.34612 1.99041L6.70381 2.25002L6.56535 1.82887L6.92304 1.57502H6.48458L6.34612 1.15387L6.21342 1.57502H5.76919ZM8.07689 1.57502L8.43458 1.83464L8.29612 2.25002L8.65381 1.99041L9.0115 2.25002L8.87304 1.82887L9.23073 1.57502H8.79227L8.65381 1.15387L8.52112 1.57502H8.07689ZM1.15381 3.88272L1.5115 4.14233L1.37304 4.55772L1.73073 4.2981L2.08842 4.55772L1.94996 4.14233L2.30765 3.88272H1.86919L1.73073 3.46156L1.59804 3.88272H1.15381ZM3.68073 4.55772L4.03842 4.2981L4.39612 4.55772L4.25765 4.13656L4.61535 3.88272H4.17689L4.03842 3.46156L3.89996 3.88272H3.4615L3.81919 4.14233L3.68073 4.55772ZM5.76919 3.88272L6.12689 4.14233L5.98842 4.55772L6.34612 4.2981L6.70381 4.55772L6.56535 4.13656L6.92304 3.88272H6.48458L6.34612 3.46156L6.21342 3.88272H5.76919ZM8.07689 3.88272L8.43458 4.14233L8.29612 4.55772L8.65381 4.2981L9.0115 4.55772L8.87304 4.13656L9.23073 3.88272H8.79227L8.65381 3.46156L8.52112 3.88272H8.07689ZM1.15381 6.19041L1.5115 6.45002L1.37304 6.86541L1.73073 6.60579L2.08842 6.86541L1.94996 6.44425L2.30765 6.19041H1.86919L1.73073 5.76925L1.59804 6.19041H1.15381ZM3.68073 6.86541L4.03842 6.60579L4.39612 6.86541L4.25765 6.44425L4.61535 6.19041H4.17689L4.03842 5.76925L3.89996 6.19041H3.4615L3.81919 6.45002L3.68073 6.86541ZM5.76919 6.19041L6.12689 6.45002L5.98842 6.87118L6.34612 6.60579L6.70381 6.86541L6.56535 6.44425L6.92304 6.19041H6.48458L6.34612 5.76925L6.21342 6.19041H5.76919ZM8.07689 6.19041L8.43458 6.45002L8.29612 6.87118L8.65381 6.60579L9.0115 6.86541L8.87304 6.44425L9.23073 6.19041H8.79227L8.65381 5.76925L8.52112 6.19041H8.07689Z" fill="white"/>
</g>
<defs>
<clipPath id="clip0">
<rect width="20.7692" height="15" fill="white"/>
</clipPath>
</defs>
</svg>
