<svg xmlns="http://www.w3.org/2000/svg" width="20" height="20" viewBox="0 0 20 20">
    <g fill="#FBC02D">
        <path d="M17.115 10l2.81-5.889c.114-.24.097-.523-.046-.749-.143-.225-.392-.362-.66-.362H.78C.35 3 0 3.348 0 3.778v12.444c0 .43.35.778.781.778H19.22c.268 0 .517-.137.66-.362.143-.226.16-.508.045-.75L17.114 10zM1.562 15.444V4.556h16.42l-2.438 5.11c-.1.211-.1.457 0 .668l2.439 5.11H1.563z"/>
        <path d="M7.12 11.906v1.09l-1.589-.008H4.218l-1.431.008.015-1.757V8.973L2.8 8.72c-.003-.522-.008-1.053-.013-1.595l2.712.003 1.564-.003V8.21l-1.078-.008-1.805.004-.01 1.353 1.165.004 1.692-.008v.874l-1.933-.008-.923.004.009 1.48 1.252.01 1.688-.01zm5.746-4.79h1.358l-.018 2.746.013 2.79-1.05.427-.622-.817c-.405-.528-.793-1.02-1.163-1.477L9.957 9.054l-.022.008L9.957 13H8.603l.017-2.22V9.539l-.017-2.05 1.138-.457 1.147 1.41c.636.786 1.298 1.583 1.987 2.391l.017-.008-.01-1.51-.016-2.012v-.187z"/>
    </g>
</svg>
