<svg width="147" height="42" viewBox="0 0 147 42" fill="none" xmlns="http://www.w3.org/2000/svg">
<path d="M54.1333 37.0839V33.5568H52.8617V33.2452C52.8617 33.1206 52.9033 33.0167 52.9864 32.9336C53.0778 32.8422 53.1858 32.7965 53.3105 32.7965H56.2777V33.5568H55.0185V37.0839H54.1333Z" fill="#818181"/>
<path d="M59.6313 37.0839V33.2452C59.6313 33.1206 59.6729 33.0167 59.756 32.9336C59.8474 32.8422 59.9554 32.7965 60.0801 32.7965H60.5165V34.3918H62.2868V32.7965H63.1844V37.0839H62.2868V35.177H60.5165V37.0839H59.6313Z" fill="#818181"/>
<path d="M66.5505 37.0839V33.2452C66.5505 33.1206 66.5921 33.0167 66.6752 32.9336C66.7666 32.8422 66.8746 32.7965 66.9993 32.7965H67.4357V37.0839H66.5505Z" fill="#818181"/>
<path d="M70.6646 37.0839V33.2452C70.6646 33.1206 70.7062 33.0167 70.7893 32.9336C70.8807 32.8422 70.9888 32.7924 71.1134 32.784H71.5872L73.3326 35.7379V32.784H74.2053V37.0839H73.2952L71.5373 34.1301V37.0839H70.6646Z" fill="#818181"/>
<path d="M80.7505 36.5729C80.6008 36.789 80.4222 36.9468 80.2144 37.0466C79.9983 37.138 79.7614 37.1837 79.5037 37.1837C78.8887 37.1837 78.4025 36.9801 78.0451 36.5729C77.6794 36.1741 77.4966 35.6257 77.4966 34.9278C77.4966 34.2381 77.6752 33.6939 78.0326 33.295C78.4066 32.8796 78.9012 32.6719 79.5162 32.6719C80.0481 32.6719 80.4886 32.8007 80.8377 33.0582C81.1785 33.3324 81.3821 33.6897 81.4486 34.1301H80.8502C80.6756 34.1301 80.5468 34.0512 80.4637 33.8933C80.4055 33.7936 80.3224 33.7022 80.2144 33.6191C80.0481 33.5028 79.8279 33.4446 79.5536 33.4446C79.1962 33.4446 78.9136 33.5734 78.7059 33.831C78.4981 34.1052 78.3942 34.4708 78.3942 34.9278C78.3942 35.3931 78.5022 35.7587 78.7183 36.0246C78.9261 36.2821 79.2212 36.4109 79.6035 36.4109C79.8861 36.4109 80.1188 36.332 80.3016 36.1741C80.4845 36.0079 80.6008 35.7794 80.6507 35.4886H80.1271C80.0024 35.4886 79.8944 35.4471 79.803 35.364C79.7198 35.2726 79.6783 35.1646 79.6783 35.0399V34.7533H81.4611V37.0839H81.2242C80.9915 37.0839 80.846 36.9676 80.7879 36.735L80.7505 36.5729Z" fill="#818181"/>
<path d="M84.8396 35.7504H85.7123C85.7456 35.9996 85.8412 36.1741 85.9991 36.2738C86.1653 36.3901 86.3939 36.4483 86.6848 36.4483C86.9424 36.4483 87.1377 36.4026 87.2707 36.3112C87.4037 36.2198 87.4702 36.0869 87.4702 35.9124C87.4702 35.6465 87.0962 35.4305 86.3481 35.2643L86.3232 35.2518C86.3232 35.2518 86.29 35.2435 86.2235 35.2269C85.7996 35.1355 85.517 35.0399 85.3757 34.9402C85.2095 34.8488 85.0931 34.7159 85.0266 34.5414C84.9435 34.3918 84.902 34.2007 84.902 33.9681C84.902 33.5609 85.0433 33.241 85.3259 33.0084C85.6084 32.784 86.0198 32.6719 86.5601 32.6719C87.0671 32.6719 87.4577 32.7882 87.732 33.0209C88.0146 33.2784 88.1642 33.6149 88.1808 34.0304H87.6821C87.491 34.0304 87.3538 33.9431 87.2707 33.7687C87.2292 33.6856 87.171 33.6149 87.0962 33.5568C86.9466 33.4488 86.7429 33.3948 86.4853 33.3948C86.2359 33.3948 86.0573 33.4405 85.9492 33.5319C85.8245 33.6233 85.7622 33.752 85.7622 33.9182C85.7622 34.1426 86.0032 34.3087 86.4853 34.4168C86.6266 34.4583 86.7305 34.4832 86.797 34.4915C86.9466 34.5414 87.0754 34.5829 87.1834 34.6162C87.2998 34.6411 87.3912 34.6619 87.4577 34.6785C87.5741 34.7283 87.6904 34.7782 87.8068 34.8281C87.973 34.9278 88.1018 35.0566 88.1933 35.2144C88.2847 35.3889 88.3304 35.58 88.3304 35.7877C88.3304 36.2364 88.1808 36.5854 87.8816 36.8347C87.5824 37.0673 87.1585 37.1837 86.61 37.1837C86.0448 37.1837 85.6209 37.0632 85.3383 36.8222C85.0308 36.5813 84.8646 36.224 84.8396 35.7504Z" fill="#818181"/>
<path d="M96.3218 35.7504H97.1945C97.2277 35.9996 97.3233 36.1741 97.4812 36.2738C97.6474 36.3901 97.876 36.4483 98.1669 36.4483C98.4245 36.4483 98.6199 36.4026 98.7528 36.3112C98.8858 36.2198 98.9523 36.0869 98.9523 35.9124C98.9523 35.6465 98.5783 35.4305 97.8303 35.2643L97.8054 35.2518C97.8054 35.2518 97.7721 35.2435 97.7056 35.2269C97.2817 35.1355 96.9991 35.0399 96.8579 34.9402C96.6916 34.8488 96.5753 34.7159 96.5088 34.5414C96.4257 34.3918 96.3841 34.2007 96.3841 33.9681C96.3841 33.5609 96.5254 33.241 96.808 33.0084C97.0906 32.784 97.502 32.6719 98.0422 32.6719C98.5492 32.6719 98.9399 32.7882 99.2141 33.0209C99.4967 33.2784 99.6463 33.6149 99.6629 34.0304H99.1643C98.9731 34.0304 98.836 33.9431 98.7528 33.7687C98.7113 33.6856 98.6531 33.6149 98.5783 33.5568C98.4287 33.4488 98.2251 33.3948 97.9674 33.3948C97.7181 33.3948 97.5394 33.4405 97.4313 33.5319C97.3067 33.6233 97.2443 33.752 97.2443 33.9182C97.2443 34.1426 97.4854 34.3087 97.9674 34.4168C98.1087 34.4583 98.2126 34.4832 98.2791 34.4915C98.4287 34.5414 98.5575 34.5829 98.6656 34.6162C98.7819 34.6411 98.8734 34.6619 98.9399 34.6785C99.0562 34.7283 99.1726 34.7782 99.2889 34.8281C99.4552 34.9278 99.584 35.0566 99.6754 35.2144C99.7668 35.3889 99.8125 35.58 99.8125 35.7877C99.8125 36.2364 99.6629 36.5854 99.3637 36.8347C99.0645 37.0673 98.6406 37.1837 98.0921 37.1837C97.5269 37.1837 97.103 37.0632 96.8205 36.8222C96.5129 36.5813 96.3467 36.224 96.3218 35.7504Z" fill="#818181"/>
<path d="M103.989 34.9402C103.989 35.4221 104.093 35.7877 104.301 36.037C104.508 36.2946 104.804 36.4234 105.186 36.4234C105.56 36.4234 105.855 36.2946 106.071 36.037C106.287 35.7711 106.395 35.4055 106.395 34.9402C106.395 34.4749 106.287 34.1052 106.071 33.831C105.855 33.5734 105.56 33.4446 105.186 33.4446C104.804 33.4446 104.508 33.5734 104.301 33.831C104.093 34.0886 103.989 34.4583 103.989 34.9402ZM103.104 34.9402C103.104 34.2423 103.287 33.6897 103.652 33.2826C104.043 32.8754 104.554 32.6719 105.186 32.6719C105.809 32.6719 106.32 32.8754 106.719 33.2826C107.093 33.698 107.28 34.2506 107.28 34.9402C107.28 35.6299 107.093 36.1783 106.719 36.5854C106.337 36.9842 105.826 37.1837 105.186 37.1837C104.538 37.1837 104.026 36.9842 103.652 36.5854C103.287 36.1866 103.104 35.6382 103.104 34.9402Z" fill="#818181"/>
<path d="M110.671 37.0839V33.2452C110.671 33.1206 110.713 33.0167 110.796 32.9336C110.887 32.8422 110.995 32.7965 111.12 32.7965H111.556V36.2863H113.651V37.0839H110.671Z" fill="#818181"/>
<path d="M117.877 32.784V35.4637C117.877 35.7961 117.94 36.0412 118.064 36.199C118.197 36.3486 118.409 36.4234 118.7 36.4234C118.983 36.4234 119.195 36.3486 119.336 36.199C119.469 36.0495 119.535 35.8044 119.535 35.4637V32.784H120.421V35.5634C120.421 36.0952 120.271 36.4982 119.972 36.7724C119.697 37.0466 119.274 37.1837 118.7 37.1837C118.127 37.1837 117.703 37.0466 117.428 36.7724C117.129 36.4982 116.98 36.0952 116.98 35.5634V33.2577C116.98 33.133 117.021 33.025 117.104 32.9336C117.196 32.8339 117.304 32.784 117.428 32.784H117.877Z" fill="#818181"/>
<path d="M125.046 37.0839V33.5568H123.774V33.2452C123.774 33.1206 123.816 33.0167 123.899 32.9336C123.99 32.8422 124.098 32.7965 124.223 32.7965H127.19V33.5568H125.931V37.0839H125.046Z" fill="#818181"/>
<path d="M130.544 37.0839V33.2452C130.544 33.1206 130.585 33.0167 130.668 32.9336C130.76 32.8422 130.868 32.7965 130.993 32.7965H131.429V37.0839H130.544Z" fill="#818181"/>
<path d="M135.468 34.9402C135.468 35.4221 135.572 35.7877 135.78 36.037C135.988 36.2946 136.283 36.4234 136.665 36.4234C137.039 36.4234 137.334 36.2946 137.55 36.037C137.766 35.7711 137.874 35.4055 137.874 34.9402C137.874 34.4749 137.766 34.1052 137.55 33.831C137.334 33.5734 137.039 33.4446 136.665 33.4446C136.283 33.4446 135.988 33.5734 135.78 33.831C135.572 34.0886 135.468 34.4583 135.468 34.9402ZM134.583 34.9402C134.583 34.2423 134.766 33.6897 135.132 33.2826C135.522 32.8754 136.033 32.6719 136.665 32.6719C137.288 32.6719 137.8 32.8754 138.199 33.2826C138.573 33.698 138.76 34.2506 138.76 34.9402C138.76 35.6299 138.573 36.1783 138.199 36.5854C137.816 36.9842 137.305 37.1837 136.665 37.1837C136.017 37.1837 135.506 36.9842 135.132 36.5854C134.766 36.1866 134.583 35.6382 134.583 34.9402Z" fill="#818181"/>
<path d="M142.151 37.0839V33.2452C142.151 33.1206 142.192 33.0167 142.275 32.9336C142.367 32.8422 142.475 32.7924 142.599 32.784H143.073L144.819 35.7379V32.784H145.691V37.0839H144.781L143.023 34.1301V37.0839H142.151Z" fill="#818181"/>
<path d="M60.5428 6.29395H63.4489L69.9358 24.1458H66.0436L64.8501 20.4613H57.8961L56.7544 24.1458H52.8623L58.7783 7.48753C59.0897 6.69181 59.6779 6.29395 60.5428 6.29395ZM61.3731 9.8747L58.8821 17.4514H63.864L61.3731 9.8747Z" fill="#029DE6"/>
<path d="M76.5091 27.4671C76.5091 27.9515 76.3362 28.3666 75.9902 28.7126C75.6442 29.0586 75.2291 29.2315 74.7447 29.2315H72.9803V16.3097C72.9803 13.8879 73.6895 12.2446 75.108 11.3797C76.5264 10.4801 78.066 10.0304 79.7266 10.0304C80.5915 10.0304 81.4565 10.2034 82.3214 10.5493C83.2209 10.8607 83.9301 11.3278 84.4491 11.9505C85.487 13.2998 86.0059 15.0296 86.0059 17.14C86.0059 19.3196 85.487 21.084 84.4491 22.4333C83.4112 23.748 82.0792 24.4053 80.4532 24.4053C79.5882 24.4053 78.8271 24.2496 78.1698 23.9383C77.4778 23.5923 76.9243 23.056 76.5091 22.3295V27.4671ZM82.4252 17.2957C82.4252 15.9464 82.1657 14.9085 81.6467 14.182C81.1278 13.4555 80.384 13.0922 79.4153 13.0922C78.4811 13.0922 77.7546 13.4555 77.2357 14.182C76.7513 14.8393 76.5091 15.8772 76.5091 17.2957C76.5091 18.6104 76.7686 19.5964 77.2876 20.2537C77.8065 20.9802 78.5503 21.3435 79.519 21.3435C80.4186 21.3435 81.1278 20.9802 81.6467 20.2537C82.1657 19.5272 82.4252 18.5412 82.4252 17.2957Z" fill="#029DE6"/>
<path d="M92.3717 27.4671C92.3717 27.9515 92.1987 28.3666 91.8528 28.7126C91.5068 29.0586 91.0916 29.2315 90.6073 29.2315H88.8429V16.3097C88.8429 13.8879 89.5521 12.2446 90.9706 11.3797C92.389 10.4801 93.9286 10.0304 95.5892 10.0304C96.4541 10.0304 97.319 10.2034 98.184 10.5493C99.0835 10.8607 99.7927 11.3278 100.312 11.9505C101.35 13.2998 101.869 15.0296 101.869 17.14C101.869 19.3196 101.35 21.084 100.312 22.4333C99.2738 23.748 97.9418 24.4053 96.3157 24.4053C95.4508 24.4053 94.6897 24.2496 94.0324 23.9383C93.3404 23.5923 92.7869 23.056 92.3717 22.3295V27.4671ZM98.2878 17.2957C98.2878 15.9464 98.0283 14.9085 97.5093 14.182C96.9904 13.4555 96.2465 13.0922 95.2778 13.0922C94.3437 13.0922 93.6172 13.4555 93.0982 14.182C92.6139 14.8393 92.3717 15.8772 92.3717 17.2957C92.3717 18.6104 92.6312 19.5964 93.1501 20.2537C93.6691 20.9802 94.4129 21.3435 95.3816 21.3435C96.2811 21.3435 96.9904 20.9802 97.5093 20.2537C98.0283 19.5272 98.2878 18.5412 98.2878 17.2957Z" fill="#029DE6"/>
<path d="M112.697 17.1919C112.213 17.4341 111.538 17.659 110.673 17.8665C109.878 18.0395 109.48 18.126 109.48 18.126C108.857 18.299 108.407 18.5239 108.131 18.8006C107.888 19.1812 107.767 19.5618 107.767 19.9423C107.767 20.4613 107.923 20.8764 108.234 21.1878C108.546 21.4646 108.995 21.603 109.584 21.603C110.552 21.603 111.313 21.3262 111.867 20.7727C112.42 20.2191 112.697 19.458 112.697 18.4893V17.1919ZM113.528 23.575C112.801 23.9556 112.023 24.1804 111.192 24.2496C110.397 24.3534 109.687 24.4053 109.065 24.4053C107.819 24.4053 106.729 24.0766 105.795 23.4193C104.861 22.7274 104.394 21.603 104.394 20.0461C104.394 18.5931 104.809 17.5552 105.64 16.9324C106.504 16.3097 107.594 15.8945 108.909 15.6869C109.082 15.6869 109.289 15.6696 109.532 15.6351C109.774 15.5659 110.051 15.514 110.362 15.4794C111.884 15.2718 112.645 14.822 112.645 14.1301C112.645 13.6111 112.369 13.2825 111.815 13.1441C111.296 12.9711 110.812 12.8846 110.362 12.8846C109.878 12.8846 109.445 12.9538 109.065 13.0922C108.684 13.2306 108.407 13.4901 108.234 13.8706H104.757C104.896 12.7981 105.38 11.9159 106.21 11.224C107.145 10.4282 108.476 10.0304 110.206 10.0304C112.144 10.0304 113.597 10.3591 114.565 11.0164C115.569 11.7083 116.07 12.677 116.07 13.9225V18.645C116.07 20.0288 115.811 21.1186 115.292 21.9143C114.808 22.6755 114.22 23.229 113.528 23.575Z" fill="#029DE6"/>
<path d="M119.115 10.3418H120.983C121.468 10.3418 121.883 10.5147 122.229 10.8607C122.575 11.2067 122.748 11.6218 122.748 12.1062V24.1458H119.115V10.3418Z" fill="#029DE6"/>
<path d="M137.157 24.1458H133.576V16.0502V15.3237C133.576 14.4934 133.317 13.8879 132.798 13.5074C132.314 13.1268 131.76 12.9365 131.137 12.9365C130.515 12.9365 129.961 13.1268 129.477 13.5074C128.992 13.8879 128.75 14.4934 128.75 15.3237V24.1458H125.117V16.0502C125.117 13.6976 125.723 12.1235 126.934 11.3278C128.179 10.532 129.546 10.0996 131.034 10.0304C131.829 10.0304 132.608 10.1169 133.369 10.2899C134.13 10.4628 134.822 10.8088 135.445 11.3278C135.964 10.878 136.569 10.5666 137.261 10.3937C137.987 10.1861 138.731 10.065 139.492 10.0304C141.015 10.0304 142.416 10.4282 143.696 11.224C144.976 12.0197 145.616 13.6284 145.616 16.0502V24.1458H143.8C143.281 24.1458 142.848 23.9902 142.502 23.6788C142.191 23.3328 142.035 22.9004 142.035 22.3814V15.3237C142.035 14.4934 141.776 13.8879 141.257 13.5074C140.772 13.1268 140.219 12.9365 139.596 12.9365C138.973 12.9365 138.403 13.1268 137.884 13.5074C137.399 13.8879 137.157 14.4934 137.157 15.3237V16.0502V24.1458Z" fill="#029DE6"/>
<ellipse cx="120.58" cy="6.22832" rx="1.8057" ry="1.78838" fill="#818181"/>
<path d="M33.2767 7.62285C31.7391 7.45555 30.356 8.58698 30.1846 10.15C30.1392 10.5566 30.1815 10.9682 30.3088 11.357C30.436 11.7458 30.6452 12.1028 30.9222 12.4039L30.9207 12.4101C31.4035 12.9616 31.6491 13.6545 31.5446 14.363C31.421 15.2 30.8365 15.8746 30.0286 16.2419L30.0253 16.2553C29.5373 16.4453 29.1111 16.766 28.7933 17.1821C28.4756 17.5983 28.2785 18.0939 28.2236 18.6147C28.053 20.1767 29.1618 21.5807 30.6993 21.748C32.2369 21.9153 33.6213 20.7841 33.7915 19.2208C33.8358 18.8233 33.7964 18.4209 33.6755 18.0397C33.5547 17.6584 33.3553 17.3067 33.0901 17.0073V17.0058C32.5815 16.4475 32.32 15.7369 32.4276 15.0093C32.5537 14.1538 33.1619 13.4676 33.9976 13.1047L33.9997 13.096C34.4757 12.9004 34.89 12.5797 35.1986 12.1679C35.5072 11.7561 35.6988 11.2684 35.7529 10.7567C35.9231 9.1931 34.8145 7.7904 33.2767 7.62285Z" fill="url(#paint0_linear)"/>
<path d="M15.6114 19.742C14.0738 19.5747 12.6891 20.7061 12.5198 22.2692C12.4744 22.6755 12.5167 23.0868 12.6438 23.4755C12.7709 23.8641 12.9798 24.2209 13.2564 24.522L13.2551 24.5282C13.7372 25.0797 13.9827 25.7726 13.878 26.4822C13.7544 27.3189 13.1702 27.9938 12.362 28.361L12.3589 28.3744C11.871 28.5644 11.4447 28.8851 11.127 29.3012C10.8092 29.7174 10.6121 30.213 10.5573 30.7338C10.3871 32.2968 11.4957 33.6998 13.0332 33.8671C14.5708 34.0344 15.956 32.903 16.1261 31.3399C16.1705 30.9424 16.131 30.5401 16.0102 30.1588C15.8893 29.7776 15.6899 29.4259 15.4248 29.1265V29.1249C14.9167 28.5669 14.656 27.8555 14.7626 27.1282C14.8889 26.2727 15.4969 25.5865 16.3326 25.2236L16.3346 25.2149C16.8106 25.0191 17.2248 24.6983 17.5333 24.2863C17.8417 23.8744 18.033 23.3866 18.0868 22.8748C18.2575 21.3122 17.149 19.9095 15.6114 19.742Z" fill="url(#paint1_linear)"/>
<path d="M16.8063 5.5239C15.9171 6.78968 16.239 8.54834 17.5254 9.45225C17.8594 9.6884 18.2402 9.85015 18.6421 9.92661C19.0439 10.0031 19.4575 9.99244 19.8549 9.89545L19.8596 9.89957C20.5758 9.74334 21.3009 9.86276 21.871 10.2967C22.543 10.8081 22.8516 11.6466 22.7836 12.5325L22.7939 12.5418C22.7248 13.0607 22.7999 13.5887 23.0108 14.0678C23.2218 14.5469 23.5605 14.9587 23.99 15.2582C25.2768 16.1621 27.0401 15.8689 27.9294 14.6034C28.8186 13.3379 28.4966 11.5802 27.2103 10.675C26.8836 10.4442 26.5121 10.2844 26.1199 10.206C25.7276 10.1276 25.3233 10.1324 24.933 10.22C24.1984 10.3955 23.45 10.2813 22.8647 9.83574C22.1767 9.31198 21.8694 8.44822 21.9559 7.54071L21.9492 7.53479C22.0078 7.02351 21.927 6.5059 21.7153 6.03683C21.5036 5.56777 21.1689 5.16472 20.7467 4.87042C19.4593 3.96522 17.6955 4.25838 16.8063 5.5239Z" fill="url(#paint2_linear)"/>
<path d="M6.76254 18.5656C7.39929 19.975 9.07687 20.5932 10.51 19.9459C10.883 19.7786 11.2159 19.5332 11.4862 19.2264C11.7564 18.9196 11.9578 18.5584 12.0766 18.1671L12.0825 18.1653C12.3124 17.4704 12.7846 16.906 13.4482 16.6363C14.2319 16.3176 15.1098 16.4785 15.8374 16.9876L15.8505 16.9835C16.262 17.3072 16.7547 17.5114 17.2746 17.5737C17.7944 17.636 18.3214 17.5541 18.7978 17.3368C20.2308 16.6895 20.8763 15.022 20.2391 13.6123C19.6018 12.2027 17.9247 11.5847 16.4922 12.232C16.1271 12.3956 15.8005 12.634 15.5333 12.9318C15.2662 13.2295 15.0645 13.58 14.9412 13.9606H14.9392C14.7165 14.6812 14.237 15.2683 13.5558 15.5452C12.7548 15.8711 11.8547 15.6958 11.1179 15.1592L11.1094 15.1617C10.6991 14.8513 10.2125 14.6576 9.70106 14.6011C9.18965 14.5447 8.6725 14.6276 8.20437 14.8411C6.77129 15.4884 6.12579 17.1559 6.76254 18.5656Z" fill="url(#paint3_linear)"/>
<path d="M26.1054 27.8094C26.7422 29.2191 28.42 29.8371 29.8528 29.1898C30.2259 29.0226 30.5589 28.7773 30.8291 28.4705C31.0994 28.1637 31.3007 27.8025 31.4195 27.4113L31.4254 27.4092C31.6555 26.7143 32.1275 26.1499 32.791 25.8801C33.5748 25.5615 34.4527 25.7224 35.1803 26.2315L35.1937 26.2273C35.6051 26.5511 36.0977 26.7553 36.6176 26.8176C37.1374 26.8799 37.6643 26.798 38.1406 26.5807C39.5737 25.9334 40.2192 24.2661 39.5819 22.8565C38.9447 21.4468 37.2673 20.8289 35.8345 21.4762C35.4696 21.6398 35.143 21.8782 34.8758 22.1759C34.6087 22.4736 34.4069 22.824 34.2836 23.2045C34.0607 23.9251 33.5812 24.5122 32.9002 24.7891C32.099 25.1147 31.1992 24.9394 30.462 24.4031L30.4535 24.4059C30.0432 24.0953 29.5566 23.9014 29.0451 23.8448C28.5335 23.7883 28.0163 23.8712 27.548 24.0847C26.1142 24.7325 25.4687 26.3998 26.1054 27.8094Z" fill="url(#paint4_linear)"/>
<path d="M18.523 26.9093C17.6338 28.1748 17.9568 29.9335 19.2424 30.8376C19.5763 31.0736 19.9569 31.2353 20.3586 31.3117C20.7603 31.3881 21.1737 31.3775 21.5709 31.2806L21.5755 31.285C22.2916 31.1285 23.0169 31.2482 23.5867 31.6821C24.26 32.1943 24.5683 33.032 24.5006 33.9174L24.5109 33.9267C24.4416 34.4456 24.5166 34.9736 24.7275 35.4528C24.9384 35.932 25.2772 36.3439 25.7067 36.6433C26.9936 37.5472 28.7571 37.2541 29.6464 35.9885C30.5356 34.723 30.2126 32.9643 28.927 32.0604C28.6004 31.8294 28.229 31.6694 27.8368 31.5908C27.4445 31.5122 27.0401 31.5167 26.6497 31.6041H26.6484C25.9141 31.7796 25.1654 31.6654 24.5804 31.2201C23.8922 30.6961 23.5851 29.8323 23.6716 28.9251L23.6649 28.9189C23.7234 28.4076 23.6425 27.8901 23.4308 27.421C23.2192 26.952 22.8845 26.5489 22.4625 26.2545C21.1761 25.3498 19.4123 25.6438 18.523 26.9093Z" fill="url(#paint5_linear)"/>
<path d="M23.2189 23.4371C24.7319 23.4371 25.9584 22.2105 25.9584 20.6975C25.9584 19.1845 24.7319 17.958 23.2189 17.958C21.7059 17.958 20.4794 19.1845 20.4794 20.6975C20.4794 22.2105 21.7059 23.4371 23.2189 23.4371Z" fill="#5B5B5B"/>
<defs>
<linearGradient id="paint0_linear" x1="30.8395" y1="20.8668" x2="34.5814" y2="6.52103" gradientUnits="userSpaceOnUse">
<stop stop-color="#981E15"/>
<stop offset="1" stop-color="#E03122"/>
</linearGradient>
<linearGradient id="paint1_linear" x1="12.7518" y1="32.875" x2="16.1828" y2="20.5557" gradientUnits="userSpaceOnUse">
<stop stop-color="#0288C9"/>
<stop offset="1" stop-color="#11558F"/>
</linearGradient>
<linearGradient id="paint2_linear" x1="16.2993" y1="4.34473" x2="25.8483" y2="14.4711" gradientUnits="userSpaceOnUse">
<stop stop-color="#38A434"/>
<stop offset="1" stop-color="#1D5527"/>
</linearGradient>
<linearGradient id="paint3_linear" x1="6.51721" y1="20.2004" x2="20.4854" y2="16.0921" gradientUnits="userSpaceOnUse">
<stop stop-color="#38A434"/>
<stop offset="1" stop-color="#1C5326"/>
</linearGradient>
<linearGradient id="paint4_linear" x1="25.8595" y1="27.8844" x2="35.8305" y2="25.3306" gradientUnits="userSpaceOnUse">
<stop stop-color="#9B1F15"/>
<stop offset="1" stop-color="#E03122"/>
</linearGradient>
<linearGradient id="paint5_linear" x1="28.9685" y1="35.8398" x2="18.9864" y2="26.9514" gradientUnits="userSpaceOnUse">
<stop stop-color="#0288C9"/>
<stop offset="1" stop-color="#115690"/>
</linearGradient>
</defs>
</svg>
