<svg width="135" height="41" viewBox="0 0 135 41" fill="none" xmlns="http://www.w3.org/2000/svg">
<path d="M130 0H5C2.23858 0 0 2.29454 0 5.125V35.875C0 38.7055 2.23858 41 5 41H130C132.761 41 135 38.7055 135 35.875V5.125C135 2.29454 132.761 0 130 0Z" fill="black"/>
<path d="M130 0.82C131.114 0.82 132.182 1.27356 132.97 2.08091C133.758 2.88825 134.2 3.98324 134.2 5.125V35.875C134.2 37.0168 133.758 38.1118 132.97 38.9191C132.182 39.7264 131.114 40.18 130 40.18H5C3.88609 40.18 2.8178 39.7264 2.03015 38.9191C1.2425 38.1118 0.8 37.0168 0.8 35.875V5.125C0.8 3.98324 1.2425 2.88825 2.03015 2.08091C2.8178 1.27356 3.88609 0.82 5 0.82H130ZM130 0H5C3.67392 0 2.40215 0.539954 1.46447 1.50108C0.526784 2.4622 0 3.76577 0 5.125L0 35.875C0 37.2342 0.526784 38.5378 1.46447 39.4989C2.40215 40.46 3.67392 41 5 41H130C131.326 41 132.598 40.46 133.536 39.4989C134.473 38.5378 135 37.2342 135 35.875V5.125C135 3.76577 134.473 2.4622 133.536 1.50108C132.598 0.539954 131.326 0 130 0V0Z" fill="#A6A6A6"/>
<path d="M47.42 10.4961C47.4364 10.872 47.3784 11.2474 47.2495 11.5997C47.1206 11.952 46.9235 12.274 46.67 12.5461C46.3859 12.8467 46.0431 13.0825 45.664 13.2379C45.2848 13.3933 44.878 13.465 44.47 13.4481C44.0596 13.4575 43.6518 13.3804 43.2717 13.2218C42.8915 13.0631 42.5472 12.8261 42.26 12.5256C41.9637 12.2309 41.73 11.8767 41.5734 11.4852C41.4168 11.0936 41.3408 10.6732 41.35 10.2501C41.3394 9.82533 41.4147 9.40292 41.5714 9.00951C41.728 8.61609 41.9625 8.26022 42.26 7.96435C42.7055 7.51815 43.2697 7.21685 43.8817 7.09831C44.4938 6.97977 45.1264 7.04928 45.7 7.2981C46.0606 7.45003 46.3822 7.68502 46.64 7.98485L46.11 8.5281C45.9114 8.28289 45.6598 8.08851 45.3751 7.9604C45.0904 7.8323 44.7805 7.77398 44.47 7.7901C44.1576 7.78853 43.8482 7.85162 43.5602 7.97561C43.2722 8.0996 43.0116 8.28191 42.794 8.51163C42.5764 8.74135 42.4064 9.01374 42.294 9.31247C42.1816 9.6112 42.1292 9.93012 42.14 10.2501C42.1334 10.7279 42.2651 11.197 42.5183 11.5981C42.7716 11.9993 43.135 12.3147 43.5629 12.5043C43.9908 12.694 44.4639 12.7496 44.9225 12.664C45.3812 12.5784 45.8048 12.3554 46.14 12.0233C46.4483 11.6811 46.6289 11.2382 46.65 10.7728H44.47V10.0348H47.38C47.4024 10.1876 47.4157 10.3417 47.42 10.4961Z" fill="white" stroke="white" stroke-width="0.2" stroke-miterlimit="10"/>
<path d="M52 7.93355H49.3V9.88105H51.76V10.619H49.3V12.5665H52V13.325H48.52V7.17505H52V7.93355Z" fill="white" stroke="white" stroke-width="0.2" stroke-miterlimit="10"/>
<path d="M55.28 13.325H54.51V7.93355H52.83V7.17505H57V7.93355H55.28V13.325Z" fill="white" stroke="white" stroke-width="0.2" stroke-miterlimit="10"/>
<path d="M59.9399 13.325V7.17505H60.7099V13.325H59.9399Z" fill="white" stroke="white" stroke-width="0.2" stroke-miterlimit="10"/>
<path d="M64.1301 13.325H63.3601V7.93355H61.6801V7.17505H65.8001V7.93355H64.1301V13.325Z" fill="white" stroke="white" stroke-width="0.2" stroke-miterlimit="10"/>
<path d="M73.61 12.5256C73.3212 12.8218 72.9782 13.0569 72.6007 13.2172C72.2233 13.3776 71.8186 13.4601 71.41 13.4601C71.0014 13.4601 70.5968 13.3776 70.2193 13.2172C69.8418 13.0569 69.4988 12.8218 69.21 12.5256C68.9192 12.2282 68.691 11.8728 68.5396 11.4814C68.3882 11.09 68.3169 10.6709 68.33 10.2501C68.3169 9.82922 68.3882 9.4101 68.5396 9.01868C68.691 8.62726 68.9192 8.27188 69.21 7.97455C69.4926 7.66992 69.8345 7.42949 70.2134 7.26881C70.5924 7.10814 71.0001 7.0308 71.41 7.0418C71.8194 7.03516 72.2258 7.11449 72.6042 7.27491C72.9825 7.43532 73.3248 7.67342 73.61 7.97455C73.8976 8.27435 74.1236 8.63017 74.2747 9.021C74.4259 9.41183 74.4991 9.82974 74.49 10.2501C74.5031 10.6709 74.4318 11.09 74.2804 11.4814C74.1291 11.8728 73.9009 12.2282 73.61 12.5256ZM69.78 12.0131C69.993 12.2343 70.2468 12.41 70.5266 12.5299C70.8065 12.6499 71.1067 12.7116 71.41 12.7116C71.7133 12.7116 72.0136 12.6499 72.2934 12.5299C72.5732 12.41 72.827 12.2343 73.04 12.0131C73.2615 11.7804 73.435 11.5044 73.5502 11.2015C73.6653 10.8986 73.7196 10.575 73.71 10.2501C73.7144 9.92221 73.6537 9.59687 73.5317 9.2938C73.4096 8.99073 73.2288 8.71625 73 8.48705C72.787 8.26578 72.5332 8.09008 72.2534 7.97016C71.9736 7.85024 71.6733 7.78849 71.37 7.78849C71.0667 7.78849 70.7665 7.85024 70.4867 7.97016C70.2068 8.09008 69.953 8.26578 69.74 8.48705C69.5257 8.72305 69.3595 9.00058 69.2513 9.30334C69.1431 9.60611 69.0951 9.92798 69.11 10.2501C69.1004 10.575 69.1548 10.8986 69.2699 11.2015C69.385 11.5044 69.5585 11.7804 69.78 12.0131Z" fill="white" stroke="white" stroke-width="0.2" stroke-miterlimit="10"/>
<path d="M75.58 13.325V7.17505H76.51L79.43 11.9618V10.7728V7.17505H80.2V13.325H79.4L76.35 8.3128V9.49155V13.325H75.58Z" fill="white" stroke="white" stroke-width="0.2" stroke-miterlimit="10"/>
<path d="M68.14 22.2938C67.2974 22.2958 66.4744 22.5539 65.7749 23.0354C65.0755 23.5169 64.531 24.2002 64.2104 24.9988C63.8898 25.7974 63.8075 26.6756 63.9738 27.5222C64.1401 28.3688 64.5476 29.1459 65.1448 29.7551C65.742 30.3644 66.502 30.7784 67.3287 30.9449C68.1555 31.1114 69.0118 31.0229 69.7895 30.6905C70.5671 30.3581 71.2311 29.7969 71.6976 29.0777C72.164 28.3585 72.412 27.5137 72.41 26.6501C72.4181 26.074 72.3131 25.502 72.1012 24.9684C71.8892 24.4347 71.5746 23.9503 71.1762 23.5438C70.7778 23.1373 70.3037 22.8172 69.7821 22.6025C69.2604 22.3877 68.702 22.2828 68.14 22.2938ZM68.14 29.2946C67.6236 29.3316 67.1082 29.2085 66.6609 28.9413C66.2137 28.6742 65.8552 28.2753 65.632 27.7965C65.4088 27.3177 65.3314 26.7811 65.4097 26.2566C65.4879 25.7321 65.7184 25.2438 66.0709 24.8553C66.4235 24.4668 66.882 24.196 67.3867 24.0781C67.8915 23.9602 68.4192 24.0007 68.9012 24.1943C69.3832 24.3878 69.7972 24.7255 70.0895 25.1635C70.3818 25.6015 70.5387 26.1194 70.54 26.6501C70.5561 26.9863 70.5063 27.3224 70.3937 27.6386C70.2811 27.9548 70.1078 28.2447 69.8841 28.4911C69.6604 28.7376 69.3909 28.9357 69.0913 29.0737C68.7918 29.2117 68.4683 29.2868 68.14 29.2946ZM58.82 22.2938C57.9774 22.2958 57.1544 22.5539 56.4549 23.0354C55.7555 23.5169 55.211 24.2002 54.8904 24.9988C54.5698 25.7974 54.4875 26.6756 54.6538 27.5222C54.8201 28.3688 55.2276 29.1459 55.8248 29.7551C56.422 30.3644 57.182 30.7784 58.0087 30.9449C58.8355 31.1114 59.6918 31.0229 60.4694 30.6905C61.2471 30.3581 61.9111 29.7969 62.3776 29.0777C62.844 28.3585 63.092 27.5137 63.09 26.6501C63.0981 26.074 62.9931 25.502 62.7811 24.9684C62.5692 24.4347 62.2546 23.9503 61.8562 23.5438C61.4578 23.1373 60.9837 22.8172 60.4621 22.6025C59.9404 22.3877 59.382 22.2828 58.82 22.2938ZM58.82 29.2946C58.3036 29.3316 57.7882 29.2085 57.3409 28.9413C56.8937 28.6742 56.5352 28.2753 56.312 27.7965C56.0888 27.3177 56.0114 26.7811 56.0897 26.2566C56.1679 25.7321 56.3983 25.2438 56.7509 24.8553C57.1035 24.4668 57.562 24.196 58.0667 24.0781C58.5715 23.9602 59.0992 24.0007 59.5812 24.1943C60.0632 24.3878 60.4772 24.7255 60.7695 25.1635C61.0618 25.6015 61.2187 26.1194 61.22 26.6501C61.2361 26.9863 61.1864 27.3224 61.0737 27.6386C60.9611 27.9548 60.7878 28.2447 60.5641 28.4911C60.3404 28.7376 60.0709 28.9357 59.7713 29.0737C59.4718 29.2117 59.1483 29.2868 58.82 29.2946ZM47.74 23.6366V25.4816H52.06C51.9922 26.3506 51.6398 27.1706 51.06 27.8083C50.6266 28.2609 50.1054 28.6151 49.5301 28.8482C48.9547 29.0813 48.3381 29.1879 47.72 29.1613C46.4469 29.1613 45.226 28.643 44.3259 27.7203C43.4257 26.7976 42.92 25.5462 42.92 24.2413C42.92 22.9365 43.4257 21.685 44.3259 20.7624C45.226 19.8397 46.4469 19.3213 47.72 19.3213C48.9404 19.3027 50.1189 19.7778 51 20.6436L52.27 19.3418C51.674 18.7376 50.9663 18.2614 50.1884 17.941C49.4106 17.6207 48.5782 17.4627 47.74 17.4763C46.851 17.4409 45.9641 17.5897 45.1326 17.914C44.3011 18.2382 43.5419 18.7312 42.9007 19.3634C42.2595 19.9955 41.7494 20.7538 41.401 21.5929C41.0525 22.432 40.8729 23.3345 40.8729 24.2464C40.8729 25.1584 41.0525 26.0609 41.401 26.9C41.7494 27.739 42.2595 28.4974 42.9007 29.1295C43.5419 29.7617 44.3011 30.2547 45.1326 30.5789C45.9641 30.9032 46.851 31.052 47.74 31.0166C48.5954 31.0516 49.4484 30.9007 50.2429 30.5739C51.0374 30.2471 51.7555 29.7517 52.35 29.1203C53.4001 27.9379 53.9596 26.3827 53.91 24.7846C53.9136 24.3999 53.8834 24.0157 53.82 23.6366H47.74ZM93.05 25.0716C92.7892 24.2851 92.3015 23.5984 91.6515 23.1024C91.0015 22.6064 90.2198 22.3244 89.41 22.2938C88.863 22.2927 88.3216 22.4066 87.8192 22.6285C87.3169 22.8504 86.8643 23.1755 86.4894 23.5838C86.1145 23.9921 85.8252 24.4749 85.6396 25.0023C85.4539 25.5297 85.3758 26.0905 85.41 26.6501C85.4014 27.5857 85.6884 28.4991 86.2281 29.2538C86.7678 30.0085 87.5312 30.564 88.4042 30.8373C89.2773 31.1107 90.2132 31.0871 91.0722 30.7703C91.9311 30.4534 92.667 29.8602 93.17 29.0793L91.72 28.0543C91.5038 28.4236 91.1972 28.7286 90.8306 28.9389C90.464 29.1493 90.0501 29.2578 89.63 29.2536C89.1965 29.2719 88.7678 29.1554 88.4002 28.9195C88.0325 28.6835 87.7431 28.339 87.57 27.9313L93.26 25.5226L93.05 25.0716ZM87.25 26.5271C87.2297 26.2092 87.2717 25.8904 87.3734 25.5894C87.4752 25.2884 87.6347 25.0113 87.8424 24.7745C88.0502 24.5376 88.3022 24.3457 88.5834 24.2102C88.8646 24.0746 89.1695 23.9981 89.48 23.9851C89.8011 23.964 90.1212 24.0402 90.4004 24.2043C90.6795 24.3683 90.9054 24.6129 91.05 24.9076L87.25 26.5271ZM82.63 30.7501H84.5V17.9376H82.63V30.7501ZM79.57 23.2676H79.5C79.216 22.9508 78.8692 22.7 78.4829 22.532C78.0965 22.3641 77.6795 22.2828 77.26 22.2938C76.1672 22.3481 75.1366 22.8313 74.382 23.6433C73.6273 24.4553 73.2063 25.5337 73.2063 26.6552C73.2063 27.7766 73.6273 28.8551 74.382 29.6671C75.1366 30.479 76.1672 30.9622 77.26 31.0166C77.6839 31.0253 78.1046 30.9379 78.4918 30.7607C78.879 30.5836 79.2233 30.3209 79.5 29.9916H79.57V30.6168C79.57 32.2876 78.7 33.1793 77.3 33.1793C76.8323 33.1688 76.3782 33.016 75.9954 32.7405C75.6126 32.4649 75.3183 32.0789 75.15 31.6316L73.53 32.3183C73.8295 33.0894 74.3502 33.7491 75.0234 34.2103C75.6965 34.6715 76.4904 34.9125 77.3 34.9013C79.49 34.9013 81.3 33.5791 81.3 30.3606V22.5501H79.57V23.2676ZM77.42 29.2946C76.7648 29.2527 76.1498 28.9564 75.7003 28.466C75.2508 27.9756 75.0005 27.3281 75.0005 26.6552C75.0005 25.9823 75.2508 25.3347 75.7003 24.8444C76.1498 24.354 76.7648 24.0577 77.42 24.0158C77.7402 24.03 78.0544 24.11 78.3438 24.2512C78.6333 24.3924 78.8921 24.5918 79.1048 24.8375C79.3175 25.0833 79.4798 25.3704 79.5821 25.6818C79.6843 25.9932 79.7244 26.3225 79.7 26.6501C79.7273 26.9788 79.6892 27.3097 79.5881 27.623C79.4871 27.9362 79.3251 28.2251 79.1119 28.4723C78.8988 28.7195 78.639 28.9198 78.3482 29.0612C78.0574 29.2025 77.7416 29.2819 77.42 29.2946ZM101.81 17.9376H97.33V30.7501H99.2V25.8916H101.81C102.343 25.9308 102.878 25.8571 103.382 25.675C103.886 25.4929 104.348 25.2064 104.739 24.8332C105.13 24.4601 105.442 24.0084 105.655 23.5062C105.869 23.0041 105.979 22.4623 105.979 21.9146C105.979 21.3669 105.869 20.8251 105.655 20.3229C105.442 19.8208 105.13 19.369 104.739 18.9959C104.348 18.6227 103.886 18.3362 103.382 18.1541C102.878 17.972 102.343 17.8983 101.81 17.9376ZM101.81 24.0876H99.2V19.7211H101.85C102.418 19.7211 102.962 19.9522 103.363 20.3635C103.765 20.7749 103.99 21.3328 103.99 21.9146C103.99 22.4963 103.765 23.0542 103.363 23.4656C102.962 23.877 102.418 24.1081 101.85 24.1081L101.81 24.0876ZM113.35 22.2528C112.669 22.2098 111.991 22.3723 111.399 22.7202C110.807 23.0682 110.328 23.5863 110.02 24.2106L111.67 24.9178C111.837 24.6097 112.087 24.3577 112.39 24.1921C112.694 24.0266 113.038 23.9547 113.38 23.9851C113.617 23.9566 113.858 23.977 114.088 24.0449C114.317 24.1127 114.531 24.2268 114.718 24.3804C114.904 24.534 115.058 24.7241 115.172 24.9396C115.286 25.155 115.356 25.3915 115.38 25.6353V25.7583C114.779 25.4343 114.109 25.2655 113.43 25.2663C111.65 25.2663 109.83 26.2913 109.83 28.1568C109.848 28.5533 109.943 28.9422 110.11 29.3003C110.277 29.6583 110.513 29.9783 110.803 30.2413C111.093 30.5042 111.431 30.7047 111.799 30.8308C112.166 30.957 112.554 31.0062 112.94 30.9756C113.409 31.0022 113.877 30.9004 114.295 30.6806C114.713 30.4609 115.067 30.1311 115.32 29.7251H115.38V30.7501H117.18V25.8198C117.18 23.5751 115.52 22.2733 113.39 22.2733L113.35 22.2528ZM113.12 29.2741C112.51 29.2741 111.66 28.9563 111.66 28.1876C111.66 27.1626 112.72 26.8141 113.66 26.8141C114.254 26.799 114.841 26.9477 115.36 27.2446C115.297 27.8012 115.04 28.3157 114.635 28.6926C114.231 29.0695 113.707 29.2834 113.16 29.2946L113.12 29.2741ZM123.74 22.5501L121.6 28.1056H121.54L119.32 22.5501H117.32L120.65 30.3196L118.75 34.6348H120.75L125.82 22.5501H123.74ZM106.94 30.7501H108.8V17.9376H106.94V30.7501Z" fill="white"/>
<path d="M10.4401 7.72849C10.1213 8.1324 9.96403 8.64529 10.0001 9.16349V31.8365C9.96603 32.3596 10.135 32.8754 10.4701 33.2715L10.5401 33.3535L22.9001 20.6537V20.3462L10.5101 7.65674L10.4401 7.72849Z" fill="url(#paint0_linear)"/>
<path d="M27 24.887L22.9 20.6538V20.3463L27 16.113L27.09 16.1745L32 19.024C33.4 19.8338 33.4 21.1663 32 21.9863L27.11 24.8358L27 24.887Z" fill="url(#paint1_linear)"/>
<path d="M27.1199 24.8357L22.8999 20.5L10.4399 33.2715C10.7225 33.5293 11.0842 33.6776 11.4623 33.6907C11.8404 33.7038 12.211 33.5809 12.5099 33.3432L27.1199 24.8357Z" fill="url(#paint2_linear)"/>
<path d="M27.1199 16.1744L12.5099 7.66688C12.213 7.42592 11.8426 7.29999 11.464 7.31124C11.0854 7.32249 10.7228 7.47019 10.4399 7.72838L22.8999 20.4999L27.1199 16.1744Z" fill="url(#paint3_linear)"/>
<path opacity="0.2" d="M26.9999 24.7332L12.5099 33.1894C12.2219 33.4122 11.8708 33.5328 11.5099 33.5328C11.1491 33.5328 10.798 33.4122 10.5099 33.1894L10.4399 33.2612L10.5099 33.3432C10.798 33.566 11.1491 33.6865 11.5099 33.6865C11.8708 33.6865 12.2219 33.566 12.5099 33.3432L27.1199 24.8357L26.9999 24.7332Z" fill="black"/>
<path opacity="0.12" d="M10.44 33.1294C10.1188 32.7225 9.96138 32.205 10 31.6829V31.8367C9.96597 32.3604 10.1349 32.8766 10.47 33.273L10.54 33.2012L10.44 33.1294Z" fill="black"/>
<path opacity="0.12" d="M32 21.8325L27 24.7332L27.09 24.8357L32 21.976C32.2898 21.8504 32.5413 21.647 32.7278 21.3872C32.9143 21.1275 33.0291 20.821 33.06 20.5C32.9975 20.7917 32.869 21.0642 32.6849 21.2957C32.5007 21.5271 32.2662 21.711 32 21.8325Z" fill="black"/>
<path opacity="0.25" d="M12.51 7.81045L32 19.1675C32.2662 19.2889 32.5007 19.4728 32.6849 19.7043C32.869 19.9357 32.9975 20.2083 33.06 20.5C33.0291 20.179 32.9143 19.8725 32.7278 19.6127C32.5413 19.353 32.2898 19.1496 32 19.024L12.51 7.66695C11.12 6.84695 10 7.52345 10 9.16345V9.3172C10 7.6772 11.12 7.0007 12.51 7.81045Z" fill="white"/>
<defs>
<linearGradient id="paint0_linear" x1="21.8001" y1="8.92774" x2="4.6058" y2="25.7026" gradientUnits="userSpaceOnUse">
<stop stop-color="#00A0FF"/>
<stop offset="0.01" stop-color="#00A1FF"/>
<stop offset="0.26" stop-color="#00BEFF"/>
<stop offset="0.51" stop-color="#00D2FF"/>
<stop offset="0.76" stop-color="#00DFFF"/>
<stop offset="1" stop-color="#00E3FF"/>
</linearGradient>
<linearGradient id="paint1_linear" x1="33.83" y1="20.5" x2="9.64003" y2="20.5" gradientUnits="userSpaceOnUse">
<stop stop-color="#FFE000"/>
<stop offset="0.41" stop-color="#FFBD00"/>
<stop offset="0.78" stop-color="#FFA500"/>
<stop offset="1" stop-color="#FF9C00"/>
</linearGradient>
<linearGradient id="paint2_linear" x1="24.8299" y1="22.8575" x2="1.5083" y2="45.6003" gradientUnits="userSpaceOnUse">
<stop stop-color="#FF3A44"/>
<stop offset="1" stop-color="#C31162"/>
</linearGradient>
<linearGradient id="paint3_linear" x1="7.29994" y1="0.184384" x2="17.7108" y2="10.3413" gradientUnits="userSpaceOnUse">
<stop stop-color="#32A071"/>
<stop offset="0.07" stop-color="#2DA771"/>
<stop offset="0.48" stop-color="#15CF74"/>
<stop offset="0.8" stop-color="#06E775"/>
<stop offset="1" stop-color="#00F076"/>
</linearGradient>
</defs>
</svg>
