<svg width="17" height="17" viewBox="0 0 17 17" fill="none" xmlns="http://www.w3.org/2000/svg">
<path d="M8.85775 2.30134C10.9843 2.30134 11.2501 2.30134 12.114 2.36779C14.307 2.43425 15.3038 3.49751 15.3702 5.62403C15.4367 6.48793 15.4367 6.68729 15.4367 8.81381C15.4367 10.9403 15.4367 11.2061 15.3702 12.0036C15.3038 14.1301 14.2405 15.1934 12.114 15.2598C11.2501 15.3263 11.0507 15.3263 8.85775 15.3263C6.73123 15.3263 6.46542 15.3263 5.66797 15.2598C3.475 15.1934 2.47819 14.1301 2.41174 12.0036C2.34528 11.1397 2.34528 10.9403 2.34528 8.81381C2.34528 6.68729 2.34528 6.42147 2.41174 5.62403C2.47819 3.49751 3.54145 2.43425 5.66797 2.36779C6.46542 2.30134 6.73123 2.30134 8.85775 2.30134ZM8.85775 0.839355C6.66478 0.839355 6.39896 0.839355 5.60152 0.905809C2.67755 1.03872 1.08266 2.63361 0.949755 5.55757C0.883301 6.35502 0.883301 6.62083 0.883301 8.81381C0.883301 11.0068 0.883301 11.2726 0.949755 12.07C1.08266 14.994 2.67755 16.5889 5.60152 16.7218C6.39896 16.7883 6.66478 16.7883 8.85775 16.7883C11.0507 16.7883 11.3165 16.7883 12.114 16.7218C15.038 16.5889 16.6328 14.994 16.7658 12.07C16.8322 11.2726 16.8322 11.0068 16.8322 8.81381C16.8322 6.62083 16.8322 6.35502 16.7658 5.55757C16.6328 2.63361 15.038 1.03872 12.114 0.905809C11.3165 0.839355 11.0507 0.839355 8.85775 0.839355ZM8.85775 4.69367C6.59833 4.69367 4.73762 6.55438 4.73762 8.81381C4.73762 11.0732 6.59833 12.9339 8.85775 12.9339C11.1172 12.9339 12.9779 11.0732 12.9779 8.81381C12.9779 6.55438 11.1172 4.69367 8.85775 4.69367ZM8.85775 11.472C7.39577 11.472 6.1996 10.2758 6.1996 8.81381C6.1996 7.35183 7.39577 6.15566 8.85775 6.15566C10.3197 6.15566 11.5159 7.35183 11.5159 8.81381C11.5159 10.2758 10.3197 11.472 8.85775 11.472ZM13.1108 3.63041C12.5792 3.63041 12.1804 4.02914 12.1804 4.56077C12.1804 5.0924 12.5792 5.49112 13.1108 5.49112C13.6424 5.49112 14.0411 5.0924 14.0411 4.56077C14.0411 4.02914 13.6424 3.63041 13.1108 3.63041Z" fill="#4F4F4F"/>
</svg>
