<svg width="18" height="14" viewBox="0 0 18 14" fill="none" xmlns="http://www.w3.org/2000/svg">
<path d="M5.63012 13.1094C11.9656 13.1094 15.4303 8.26567 15.4303 4.06559C15.4303 3.92797 15.4272 3.79106 15.4204 3.65468C16.0929 3.20605 16.6775 2.64607 17.1387 2.0089C16.5215 2.26194 15.8574 2.43233 15.1607 2.50915C15.8718 2.11568 16.4179 1.49297 16.6754 0.750782C16.0098 1.115 15.2728 1.37967 14.4884 1.52239C13.8596 0.904611 12.9644 0.518188 11.974 0.518188C10.0717 0.518188 8.52902 1.94177 8.52902 3.69644C8.52902 3.94595 8.55938 4.18841 8.61819 4.42118C5.75576 4.28849 3.21736 3.0235 1.51872 1.10038C1.22257 1.56997 1.05206 2.11586 1.05206 2.69787C1.05206 3.80058 1.66021 4.77412 2.58495 5.3438C2.01995 5.32776 1.48913 5.18433 1.02494 4.9461C1.02418 4.95932 1.02418 4.97271 1.02418 4.98663C1.02418 6.52615 2.21166 7.81141 3.78751 8.10268C3.49824 8.17545 3.19387 8.21457 2.87958 8.21457C2.6577 8.21457 2.44194 8.19413 2.23209 8.1573C2.6705 9.42 3.94218 10.3391 5.44987 10.365C4.27079 11.2177 2.78563 11.7257 1.17197 11.7257C0.894149 11.7257 0.619954 11.711 0.350342 11.6816C1.87464 12.5831 3.6846 13.1094 5.63012 13.1094Z" fill="#4F4F4F"/>
</svg>
